<?xml version="1.0" encoding="utf-8"?>
<!-- Generator: Adobe Illustrator 21.1.0, SVG Export Plug-In . SVG Version: 6.00 Build 0)  -->
<svg version="1.0" id="Capa_1" xmlns="http://www.w3.org/2000/svg" xmlns:xlink="http://www.w3.org/1999/xlink" x="0px" y="0px"
	 viewBox="0 0 1400 980" enable-background="new 0 0 1400 980" xml:space="preserve">
<g>
	<path fill="#151D38" d="M283.2,342.4c1-0.9,2.1-1.3,3.4-1.6c27.7-5.5,55.3-11,83-16.5c1.9-0.4,3.8-0.8,5.7-1.1
		c2.7-0.5,3.3,0.1,2.9,2.7c-1.7,10.4-3.3,20.8-5,31.2c-2,12.6-4,25.3-6,37.9c-0.5,3.4-1.1,6.8-1.6,10.2c-0.1,0.5-0.2,0.9-0.2,1.4
		c-0.1,0.7,0,1.1,0.9,0.8c1.1-0.4,2.1-0.7,3.2-0.9c8.9-1.7,17.6,4,19.6,12.8c0.5,2.4,0.6,4.8,0,7.1c-0.3,1.4,0,2.2,0.8,3.2
		c15.9,19.9,31.9,39.9,47.8,59.8c0.5,0.6,1,1.3,1.5,1.9c0.6,0.8,1.1,1.6,2.3,0.8c0.7-0.4,1.4,0.1,1.9,0.7c3.1,4,6.2,8,9.3,11.9
		c0.4,0.5,0.8,1.2,0.3,1.8c-1,1.2-0.1,1.8,0.5,2.6c5,6.3,10.1,12.6,15.1,18.9c6,7.5,12,15,18,22.5c0.2,0.2,0.4,0.5,0.6,0.7
		c0.3,0.3,0.4,1,1,0.7c0.4-0.2,0.2-0.7,0.3-1.1c0.3-6-1.3-11.5-4.4-16.7c-2.9-4.8-6.4-9.2-10-13.5c-5.8-7.1-11.6-14.2-16.4-22.2
		c-7-11.6-11.3-24.1-13.2-37.5c0-0.2-0.1-0.5-0.1-0.7c-0.4-1.8,0.1-2-2.3-2.1c-8.6-0.5-14.9-7.6-14.5-16.2
		c0.4-8.5,7.6-15.1,16.1-14.7c1.7,0.1,1.8,0,2.3-1.8c6-21.5,18.6-38,38.1-49.1c14.6-8.3,30.4-11.5,47.1-9.9
		c32.8,3.2,60.6,26.5,69.3,59c0.5,2,0.5,2,2.7,2c8.2,0,15.2,6.3,15.7,14.1c0.6,9.7-6.6,16.4-14.4,16.9c-2.2,0.1-2.2,0.2-2.5,2.4
		c-2.7,19-10.4,35.8-22.4,50.7c-4.1,5.2-8.4,10.3-12.5,15.5c-3.3,4.2-6.3,8.7-7.9,13.9c-0.9,2.7-1.4,5.4-1.3,8.2
		c0.1,2.8-0.2,5.6,0.3,8.4c0.8,4.4,3.1,7.7,6.9,9.9c2,1.2,4.1,2.2,6.2,3.2c7.2,3.5,11.9,9.3,14.7,16.7c2,5.2,3,10.6,4.1,16
		c1.5,7.4,3,14.7,4.5,22.1c0.2,1.2,0.4,2.3,2.1,2.2c0.9-0.1,1.1,1,1.3,1.8c0.8,3.6,1.5,7.2,2.3,10.8c0.2,1.1,0.4,2.2,0.7,3.3
		c0.3,1.1,0.2,2-1,2.3c-1.1,0.3-1.1,0.9-0.9,1.8c1,4.5,1.8,9.1,2.8,13.6c0.5,2.2,0.5,2.3,2.7,2.3c11.2,0,22.4,0,33.6,0
		c0.9,0,1.8,0,2.6,0c1.1,0.1,1.6-0.3,1.6-1.5c-0.1-1.2,0-2.4,0-3.6c0-6.1,0-12.2,0-18.2c0-2.7,0-2.7-2.6-2.7c-2.8-0.1-3-0.2-3-3.1
		c0-5.5,0-11,0-16.6c0-2.7,0.2-2.9,2.8-2.9c0.1,0,0.2,0,0.2,0c2.3,0,2.4,0,2.4-2.4c0-12.6,0-25.1,0-37.7c0-4.2,0.5-8.4,1.5-12.6
		c1.6-6.4,5-11.7,10.2-15.8c1.3-1,2.5-2,3.8-3c5.7-4,7.6-9.6,7-16.3c-0.4-4.9-1.5-9.6-3.3-14.2c-7.3-18.4-15-36.7-22-55.2
		c-5-13.1-9.8-26.4-13.5-40c-1.5-5.6-2.9-11.1-3.3-16.9c-0.8-12.3,1.1-24.1,6.7-35.1c0.2-0.4,0.5-0.8,0.7-1.3c0.7-1.3,0.6-1.4-1-1.4
		c-3,0-6.1,0-9.1,0c-0.6,0-1.3,0-1.9-0.1c-1.4-0.4-1.8-1.6-0.8-2.7c0.4-0.4,0.9-0.7,1.3-1.1c4.2-3.2,8.4-6.4,12.5-9.7
		c1.1-0.8,1.1-1-0.1-1.6c-3.6-1.9-7.2-3.8-10.8-5.8c-0.8-0.5-1.7-0.9-2.5-1.4c-0.7-0.4-1.4-0.8-1.5-1.7c0-1.1,0.8-1.5,1.6-1.9
		c4.2-2.2,8.5-4.4,12.7-6.7c1.4-0.8,1.4-0.8,0.2-1.8c-3.9-3.1-7.9-6.3-11.9-9.4c-0.5-0.4-1-0.8-1.5-1.2c-0.7-0.5-1.2-1.1-0.9-2
		c0.3-1,1.1-1.1,1.9-1.1c0.6,0,1.1,0,1.7,0c35.9,0,71.8,0,107.8,0c6.4,0,12.5,1.3,18.3,4.1c4.8,2.3,8.8,5.6,11.8,10
		c0.5,0.7,1,1.3,2,1.5c8.3,1.1,14.7,5.5,19.6,12.2c6.3,8.5,8.3,18.2,7.2,28.6c-0.5,4.8-1.8,9.4-3.5,13.9c-0.7,2-0.7,2,1.4,2.3
		c6.1,0.9,10.8,4,14,9.2c7.6,12.3,0.1,28.7-14.8,30.4c-2.2,0.2-4.3,0.1-6.4-0.3c-1.7-0.4-1.8-0.6-2.3,1.6c-1.2,5-2.4,10.1-3.7,15.1
		c-5.7,23.7-11.5,47.4-17.2,71c-1.2,5.1-1.8,10.2-1.8,15.4c0,5.1,1.9,9.3,5.9,12.6c1.5,1.2,3,2.4,4.5,3.6
		c7.1,5.4,10.6,12.8,11.6,21.5c0.1,0.6,0.2,1.3,0.2,1.9c0,0.9,0.5,1.4,1.2,1.9c4.9,2.9,9.9,5.6,15.1,7.8c1.5,0.6,1.7,0.6,1.6-1.1
		c-0.5-8.1,2.7-14.8,7.6-20.9c1.3-1.6,2.5-3.3,3.8-4.9c2.6-3.3,3.3-7,2-11.1c-1.1-3.4-2.2-6.7-3.5-10c-3-7.8-5.9-15.5-7.6-23.7
		c-2.3-10.7-2.3-21.4,0.7-32c0.5-1.8,0.5-1.8-1.4-2.8c-5.8-3.1-9.2-9.5-8.5-15.7c0.9-7,5.4-12.3,12-14c2.1-0.5,4.3-0.6,6.4-0.2
		c1.2,0.2,1.8,0,2.3-1.3c3.6-9.5,8.8-18.1,15.6-25.7c1.1-1.2,1.1-1.3-0.4-2.1c-1.9-1.1-3.8-2.1-5.6-3.2c-0.7-0.4-1.3-0.9-1.2-1.9
		c0.2-1,0.9-1.2,1.7-1.4c9-2.1,17.4-5.8,25.9-9.4c7.1-3.1,14.3-6.1,21.9-7.6c47.1-9.6,90.3,19.5,99.6,64.2c0.4,1.8,0.6,3.6,0.9,5.4
		c0.1,0.9,0.5,1.2,1.4,1.3c1.3,0.1,2.6,0.3,3.8,0.6c6.9,1.9,11.5,7.9,11.6,15c0.1,7.4-4.3,13.6-11.3,15.8c-0.3,0.1-0.6,0.2-0.9,0.2
		c-1.1,0.1-1.4,0.7-1.5,1.8c-0.1,3.6,0.3,7,1.3,10.4c1,3.3,2.4,6.4,3.7,9.6c1.6,3.8,2.9,7.6,3.4,11.7c0.6,4.8,0.4,9.6-1,14.2
		c-1.4,4.7-4.3,8.3-8,11.5c-2,1.8-4.1,3.6-6.2,5.4c-7.8,6.9-8.8,18.1-5.2,26c1.6,3.4,3.8,6.5,5.8,9.7c0.7,1.1,1.5,0.7,2.3,0.4
		c4.7-1.6,9.3-3.3,13.8-5.5c23.7-11.3,42-28.3,54.7-51.3c6.1-11.1,10.2-22.9,12.6-35.3c0.3-1.4,0.2-2.5-1.3-3.4
		c-6.3-4.2-8.5-12.3-6.7-18.7c2-7.1,6.9-11.3,14.2-12.6c0.6-0.1,1.5,0,1.7-0.6c0.1-0.6-0.8-0.9-1.3-1.3
		c-15.1-11.8-30.2-23.7-45.3-35.5c-2.9-2.3-2.9-2.8,0.2-4.7c20.1-12.4,40.1-24.8,60.2-37.1c1-0.6,2-1.7,3.2-0.6c1.1,1,0.3,2.1,0,3.1
		c-7.1,22-14.1,44-21.2,65.9c-0.7,2.2-0.7,2.2,1,3.5c1.2,0.9,2.4,1.9,3.6,2.8c1.6,1.2,1.5,1.2,2.2-0.6c1.4-3.5,3.8-5.8,7.5-6.8
		c5.4-1.5,11,1.4,13,6.7c0.1,0.4,0.2,0.8,0.3,1.2c0.2,0.9,0.5,1.5,1.6,1c0.5-0.2,1.1-0.2,1.6-0.2c3.7-0.1,6.7,2.4,7,6.1
		c0.1,1.2,0.3,2,1.4,2.7c2.9,2,3.7,5.9,1.8,8.9c-1.1,1.8-2.2,3.8-4,5.1c-0.8,0.6-0.5,1,0.1,1.5c2.2,1.7,4.4,3.5,6.6,5.2
		c3.3,2.6,6.7,5.2,10,7.8c0.3,0.2,0.6,0.5,0.9,0.8c1.1,1,1.2,1.7,0.7,2.4c-0.6,0.8-1.4,0.8-2.5,0.1c-0.4-0.3-0.8-0.6-1.1-0.9
		c-5.1-4-10.2-8-15.3-12c-0.6-0.4-1.1-0.9-1.7-1.3c-1.2-0.9-1.2-0.9-1.7,0.5c-0.5,1.2-0.9,2.4-1.5,3.5c-2,4.1-5.1,7-9.4,8.3
		c-1.6,0.5-2.1,1.4-2.3,2.9c-2.4,13.7-6.8,26.8-13.1,39.2c-14,27.3-34.6,48.1-61.7,62.5c-8.1,4.3-16.6,7.8-25.5,10.4
		c-1.4,0.4-2,1.1-2.5,2.5c-4.9,16.4-19.9,26.8-36.9,25.7c-2.6-0.2-5.1-0.7-7.5-1.4c-1-0.3-1.3,0-1.1,1c1,6,0.3,11.8-2.1,17.4
		c-0.4,0.9-0.2,1.3,0.8,1.3c0.6,0,1.3,0,1.9,0c17.3,0,34.6,0,51.8,0c0.7,0,1.4,0,2.2,0c0.8,0,1.3,0.5,1.4,1.4c0,0.8-0.4,1.4-1.2,1.6
		c-0.4,0.1-0.8,0.1-1.2,0.1c-0.6,0-1.3,0-1.9,0c-178.5,0-357,0-535.4,0c-1,0-1.9,0-2.9-0.1c-1-0.1-1.4-0.7-1.4-1.6
		c0-0.8,0.5-1.3,1.4-1.3c0.7,0,1.4,0,2.2,0c15,0,29.9,0,44.9,0c2.9,0,2.7,0.3,2.7-2.8c0-20.8,0-41.6,0-62.4c0-1.7-0.5-3-1.6-4.3
		c-17.7-22.1-35.4-44.2-53.2-66.3c-0.7-0.9-1.3-2-2.9-1.3c-0.7,0.3-1.3-0.4-1.8-0.9c-3-3.8-6-7.7-9-11.5c-0.4-0.5-0.8-1.2-0.4-1.7
		c0.9-1.2,0.1-1.9-0.6-2.7c-14.6-18.2-29.2-36.4-43.8-54.7c-0.7-0.8-1.4-1.4-2.5-1.6c-2.6-0.4-5.1-1.2-7.6-2.3
		c-1.8-0.8-1.8-0.8-2.1,1.1c-1.3,8-2.5,16.1-3.8,24.1c-0.1,0.5-0.2,1.1-0.4,1.6c-0.3,0.6-0.8,1-1.5,0.9c-0.8-0.1-1.3-0.6-1.4-1.4
		c0-0.4,0.1-0.8,0.1-1.2c1.3-8.4,2.7-16.7,4-25.1c0.1-0.3,0.1-0.6,0.1-0.9c0.3-1.2-0.1-2.1-1.1-2.9c-2-1.5-3.7-3.3-5.1-5.4
		c-0.6-0.8-1.2-1.1-2.2-1c-3.4,0.1-6.2-1.6-8.6-3.6c-2.2-1.8-2.7-4.9-1.3-7.7c0.5-1.1,0.5-1.8,0-2.8c-1.9-4.1,0.1-8.2,4.4-9.4
		c1.1-0.3,1.4-0.7,1.1-1.8c-0.6-2-0.5-4.1,0.2-6.1c2.3-7.4,11.6-9.9,17.6-4.8c0.4,0.3,0.7,0.7,1,1c0.2,0.2,0.5,0.6,0.7,0.5
		c0.4-0.1,0.5-0.6,0.5-0.9c0.8-5.1,1.6-10.1,2.4-15.1c0.2-1.4-0.5-1.8-1.5-2.4c-8.6-4.8-17.2-9.6-25.7-14.4
		c-17.2-9.6-34.3-19.2-51.5-28.8c-1-0.6-2-1.3-2.9-2.1C283.2,342.7,283.2,342.6,283.2,342.4z"/>
	<path fill="#FAE0D6" d="M692.4,363.6C692.4,363.6,692.4,363.6,692.4,363.6c-12.9-0.1-25.8-0.1-38.6-0.1c-5.8,0-11.5,0-17.3-0.1
		c-1.5,0-2.6,0.3-3.3,1.8c-0.7,1.6-1.7,3.1-2.4,4.7c-5.4,12.5-6.8,25.4-4.2,38.7c2.1,10.7,5.6,21,9.2,31.2
		c7.7,21.9,16.6,43.2,25.2,64.8c2.9,7.3,6.3,14.6,6.6,22.7c0,0.9,0.5,1.3,1.3,1.5c2.2,0.6,4.4,1.3,6.7,1.9
		c10.8,2.6,21.7,3.5,32.8,3.4c13-0.2,25.8-1.9,38.4-5.2c2.3-0.6,2.3-0.6,2.4-3.1c0.2-4.1,0.8-8.1,1.8-12.1c4.6-19,9.2-38,13.8-57.1
		c2.5-10.4,5-20.8,7.6-31.2c0.6-2.4,1-2.6,3.3-1.8c2.1,0.7,4.2,1.1,6.4,1c7-0.6,12.1-4,14.8-10.5c2.7-6.5,1.5-12.7-3.3-17.8
		c-4.8-5.2-10.8-6.5-17.5-4.5c-0.5,0.2-1,0.4-1.6,0.5c-1.3,0.2-2.2-0.9-1.7-2.1c0.3-0.7,0.9-0.8,1.5-1.1c0.6-0.3,1.7-0.2,1.7-0.9
		c0-0.7-1-0.8-1.6-1.1c-0.4-0.2-0.9-0.4-1.3-0.7c-9.2-4.9-16.9-11.5-22-20.8c-0.7-1.4-1.7-1.6-3.1-1.6c-12.6,0-25.1,0.1-37.7-0.1
		C704.4,363.5,698.4,363.6,692.4,363.6z"/>
	<path fill="#FAE0D6" d="M788.5,458.9c0,6.3,4.4,11.6,10.6,12.7c0.9,0.2,1.9,0.2,2.9,0.4c1.4,0.2,1.8,0.5,1.9,1.9
		c0.1,0.6,0,1.1,0,1.7c0,5.5,0.7,11,1.8,16.4c2.5,12,7.4,22.9,14.1,33.1c4.8,7.3,10.3,14.1,15.5,21.1c4.2,5.7,8.2,11.4,10.4,18.2
		c0.3,1,1,1.1,1.8,1.2c3.9,0.4,7.8,0.9,11.7,1.4c12.4,1.4,24.8,2.8,37.2,4.2c1.3,0.2,2-0.2,2.7-1.3c1.8-3.1,4.1-5.7,6.6-8.2
		c4.3-4.3,9-8.1,13.7-12c6.1-5.1,12.1-10.2,17.6-16c10.8-11.4,18.4-24.7,22.3-40c1.1-4.3,0.7-3.8,4.9-3.4
		c7.1,0.8,13.8-4.8,14.2-11.8c0.4-7.5-5.2-13.9-12.5-13.7c-4.2,0.1-7.6-1.4-10.8-3.8c-4.2-3.2-7-7.4-8.9-12.2
		c-0.6-1.5-1.5-2.2-2.9-2.7c-17.2-5.7-29.9-16.5-37.5-33.1c-0.9-2-1-1.9-2.7-0.8c-0.3,0.2-0.7,0.4-1,0.6
		c-12.9,7.1-26.8,10.6-41.6,10.6c-7.7,0-15.3-1-22.7-3.1c-1.9-0.5-2-0.5-2.8,1.4c-1.2,3-2.7,5.8-4.4,8.5c-4,6.4-9,11.8-15.8,15.3
		c-3.3,1.7-6.5,2-10.1,1C796.3,444.4,788.6,450.6,788.5,458.9z"/>
	<path fill="#EDCFE4" d="M667.2,619.5c0,14.1,0,28.2,0,42.2c0,2.1,0,2.2,2.1,2.2c24.2,0,48.5,0,72.7,0c2.1,0,2.1,0,2.1-2.1
		c0-6.9,0-13.8,0-20.6c0-3.2,0-3.2-3.1-3.3c-2.6-0.1-2.8-0.3-2.8-3c0-5,0-10.1,0-15.1c0-4.3,0-4.3,4.2-4.5c1.7-0.1,1.7-0.1,1.7-1.8
		c0-0.6,0-1.1,0-1.7c0-11.3,0-22.6,0-33.8c0-0.7,0-1.4,0.1-2.2c0.1-0.7,0.5-1.1,1.3-1.2c0.8-0.1,1.4,0.3,1.7,1
		c0.3,0.8,0.2,1.6,0.2,2.4c0,11.7,0,23.4,0,35c0,2.2,0,2.2,2.2,2.2c6.6,0,13.3,0,19.9,0c0.4,0,0.8,0,1.2,0c0.8,0,1.2-0.4,1.1-1.2
		c0-0.5,0-1,0-1.4c0-11.4,0-22.7,0-34.1c0-3.9-0.2-7.8-0.8-11.7c-1.2-7.2-4.3-13.3-10.2-17.9c-1.7-1.3-3.4-2.7-5-4.1
		c-2-1.7-3.7-3.7-4.9-6.2c-0.7-1.5-0.8-1.6-2.5-1.1c-10.6,2.9-21.4,4.6-32.4,5.2c-16.2,0.8-32.3-0.2-47.9-5.2c-1-0.3-1.5-0.4-2,0.8
		c-1.1,2.7-3.1,4.9-5.3,6.7c-1.7,1.4-3.5,2.8-5.2,4.2c-4.6,3.7-7.6,8.4-9,14.1c-0.9,3.8-1.4,7.7-1.4,11.6c0,12.4,0,24.8,0,37.2
		c0,0.5,0,1,0,1.4c-0.1,1,0.3,1.5,1.3,1.5c5.4,0,10.9,0,16.3,0c0.9,0,1.3-0.4,1.3-1.3c0-0.6,0-1.3,0-1.9c0-11.4,0-22.7,0-34.1
		c0-0.7,0-1.4,0.1-2.2c0.1-0.8,0.6-1.3,1.5-1.3c0.8,0,1.4,0.4,1.5,1.3c0.1,0.7,0.1,1.4,0.1,2.2C667.2,591.9,667.2,605.7,667.2,619.5
		z"/>
	<path fill="#F08D20" d="M523.3,663.9c11.3,0,22.6,0,33.8,0c3.3,0,3,0.3,3-3c0-19.6,0-39.2,0-58.8c0-0.7,0-1.4,0.1-2.2
		c0.1-0.8,0.7-1.3,1.5-1.2c0.7,0,1.2,0.4,1.4,1.1c0.1,0.8,0.2,1.6,0.2,2.4c-0.1,4.7,0.1,9.3,1.2,13.8c0.6,2.4,1,4.8,1.5,7.3
		c0.6,3,1.2,5.9,1.9,8.9c0.4,2,0.4,2,2.5,1.5c2.2-0.5,4.4-1,6.5-1.5c4.2-1,8.4-1.9,12.6-2.9c2.5-0.6,2.1-0.1,1.8-2.8
		c0-0.2-0.1-0.3-0.1-0.5c-1.2-6.1-2.4-12.2-3.7-18.3c-1.2-5.4-2-10.8-3.6-16.1c-2.6-8.5-7.5-14.9-15.8-18.5
		c-1.2-0.5-2.3-1.1-3.4-1.7c-4.3-2.2-7.5-5.5-9-10.1c-0.4-1.3-0.9-1.3-2.1-1c-14.6,3.7-29.5,4.7-44.5,3c-6-0.7-12-1.8-17.9-3.4
		c-1.3-0.4-2.4-1-3.3-2.2c-3.2-4.1-6.5-8.1-9.7-12.2c-9-11.3-18-22.6-27.1-33.9c-1.7-2.1-1.2-2.2-3.7-0.4
		c-5.2,3.9-10.4,7.8-15.5,11.7c-0.4,0.3-0.9,0.7-1.3,1c-0.6,0.4-0.7,0.8-0.2,1.4c0.3,0.4,0.6,0.7,0.9,1.1
		c17.9,22.3,35.7,44.6,53.6,66.8c1.3,1.6,1.8,3.2,1.8,5.2c-0.1,20.8,0,41.6,0,62.4c0,0.6,0,1.3,0,1.9c-0.1,1.1,0.5,1.4,1.5,1.3
		c0.6,0,1.1,0,1.7,0C501,663.9,512.1,663.9,523.3,663.9z"/>
	<path fill="#FFFFFF" d="M926.7,620.4c7.7,0.1,15-0.5,22.3-1.7c30.1-5,56-18.3,77.7-39.7c12.2-12.1,21.8-26.1,28.8-41.8
		c2.6-5.8,4.8-11.7,6.6-17.7c0.5-1.8,0.5-1.9-1.4-2.5c-4.5-1.4-9-2.8-13.5-4.2c-1.2-0.4-1.8-0.3-2,1c0,0.3-0.2,0.6-0.3,0.9
		c-2.4,8.1-5.5,15.8-9.6,23.2c-12.8,23.6-31.4,41.1-55.5,52.8c-14.4,7-29.7,10.9-45.7,11.8c-9,0.5-17.9,0-26.8-1.4
		c-5.9-0.9-9.7-4.1-11.8-9.6c-0.8-2.3-1.1-4.7-1-7.1c0.1-1.1-0.2-1.6-1.4-1.7c-2.2-0.2-4.4-0.5-6.7-0.8c-9.4-1.1-18.7-2.1-28.1-3.2
		c-3.4-0.4-6.8-0.7-10.2-1.2c-1.2-0.1-1.8,0.2-2,1.4c0,0.3-0.1,0.6-0.2,0.9c-2,8.3-8,13-16,12.5c-11.4-0.8-22.5-3.1-33.2-6.9
		c-7.2-2.6-14-5.8-20.6-9.6c-1.5-0.9-1.5-0.8-1.5,0.9c0,5.3,0.1,10.6,0,15.8c0,1.9,0.5,3,2.3,3.8c15.1,7.3,31.1,11.7,47.8,13.4
		c8.5,0.8,13.7,7.7,12,15.9c-2.5,11.8-5,23.6-7.4,35.4c-0.6,2.8-0.6,2.9,2.3,2.9c19.5,0,39,0,58.5,0c0.5,0,1,0,1.4,0
		c1.1,0.1,1.4-0.5,1.4-1.4c0-0.3,0-0.6,0-1c0.1-8.1,0.2-16.1,0.3-24.2c0.1-2.7-0.1-5.4,0.4-8.1c1.3-6.3,7.1-10.6,13.8-10
		C914.1,619.8,920.5,620.6,926.7,620.4z"/>
	<path fill="#FAE0D6" d="M523.3,496.7c0,18.4,0,36.8,0,55.2c0,2.3,0,2.3,2.2,2.3c9.3-0.1,18.5-1.4,27.5-3.7c1.3-0.3,1.7-1,1.8-2.3
		c0.2-5.7,2.1-10.9,5.1-15.8c1.8-3,3.8-5.7,5.9-8.4c3.6-4.5,7.3-8.9,10.9-13.4c12-15,19.8-31.8,22.3-50.9c0.5-3.9,0.6-3.9,4.5-3.9
		c6.2-0.1,11.6-4.9,12.2-11c0.7-6.5-3.6-12.3-9.9-13.6c-1.8-0.4-3.5-0.1-5.2,0.1c-1.6,0.2-1.9,0-2.3-1.6c-0.4-1.3-0.8-2.6-1-4
		c-0.3-2-1.4-2.7-3.3-3c-7.4-1.2-14.4-3.6-21.1-6.9c-11-5.5-20.2-13.1-27.8-22.8c-1.4-1.8-1.4-1.8-3.3-0.5
		c-5.1,3.7-10.6,6.9-16.5,9.2c-1.6,0.6-2,1.4-1.9,3c0.1,3.7,0,7.4,0.1,11c0,0.9-0.5,2.1,0.3,2.7c0.6,0.5,1.4-0.6,2.1-0.7
		c0.2,0,0.5-0.2,0.7-0.2c0.7,0.1,1.2,0.4,1.5,1c0.2,0.6,0.1,1.1-0.4,1.5c-0.4,0.3-0.9,0.6-1.4,0.9c-2,1-4,2-6,3.1
		c-1.5,0.8-1.5,0.9-0.2,1.8c1.7,1.2,3.4,2.4,5.1,3.5c0.5,0.3,0.9,0.6,1.4,1c0.7,0.6,0.9,1.3,0.4,2.1c-0.4,0.8-1.2,0.7-1.9,0.5
		c-0.2-0.1-0.4-0.2-0.6-0.3c-0.9-0.5-1.1,0-1.1,0.8c0,0.3,0,0.6,0,1c0.1,1.6,0.1,1.6,1.7,1.5c1.3-0.1,2.5-0.3,3.8-0.7
		c6.4-1.9,11-6,14.3-11.7c0.9-1.5,1.6-1.9,2.6-1.5c0.9,0.4,1,1.5,0.2,3c-3.4,6.2-8.3,10.7-15.1,12.9c-1.8,0.6-3.6,0.9-5.4,1.1
		c-2.1,0.2-2,0.1-2,2.4c0,0.6,0,1.1,0,1.7C523.3,461,523.3,478.9,523.3,496.7z"/>
	<path fill="#EDCFE4" d="M520.2,412.3C520.2,412.3,520.2,412.3,520.2,412.3c0-2.4,0-4.8,0-7.2c0-1.1-0.4-1.4-1.5-1.1
		c-0.6,0.2-1.2,0.4-1.8,0.5c-7.5,2.2-15.2,3.2-23,3.1c-10.7-0.2-20.9-2.3-30.7-6.6c-1.6-0.7-1.6-0.7-2.7,0.8
		c-3.9,5.4-7,11.2-9.4,17.5c-1.2,3.2-2.2,6.5-3,9.9c-0.4,1.8-0.9,2.1-2.7,1.8c-0.3-0.1-0.6-0.1-0.9-0.2c-7.1-0.9-13.6,4.3-14,11.3
		c-0.5,7.3,5.1,13.3,12.4,13.3c3.9,0,3.9,0,4.4,4c1.6,12.7,5.5,24.6,11.8,35.7c4.6,8.1,10.3,15.4,16.2,22.6c4,4.8,8,9.6,11.2,15
		c2.7,4.6,4.6,9.5,5,14.9c0.2,2.7,0.1,2.7,2.8,3.3c6.6,1.6,13.3,2.6,20.1,3.2c1.4,0.1,2.9,0.1,4.3,0.2c1.2,0.1,1.6-0.4,1.5-1.5
		c0-0.2,0-0.5,0-0.7c0-36.9,0-73.8,0-110.6c0-2.1,0-2-2-2.4c-8.2-1.7-14.1-6.6-18-13.9c-0.2-0.3-0.3-0.6-0.4-0.9
		c-0.3-0.8-0.1-1.5,0.6-1.9c0.8-0.4,1.6-0.4,2.1,0.5c0.3,0.5,0.5,1,0.8,1.5c3,5.2,7.2,9.1,13.1,11c3.7,1.2,3.7,1.1,3.7-2.6
		c0-0.3,0-0.6,0-1c0.1-1.2-0.3-2-1.3-2.6c-1.2-0.7-2.4-1.6-3.6-2.4c-2.1-1.5-2-2.5,0.3-3.8c1-0.5,2-1.1,3-1.5
		c1.2-0.5,1.7-1.2,1.6-2.6C520.1,416.6,520.2,414.4,520.2,412.3z"/>
	<path fill="#151D38" d="M928.1,599.7c2.3,0.1,5.6-0.3,8.9-0.4c1.1,0,1.7-0.5,2.2-1.5c2.4-5.6,3.4-11.4,2.2-17.6
		c-0.8-4.3-2.8-8.1-4.8-12c-1.4-2.5-2.8-5-3.7-7.8c-0.9-2.6-1.2-5.3-0.6-8c0.2-1,0.8-1.6,1.9-1.4c1.1,0.2,1.5,1,1.2,2
		c-0.3,1.4-0.4,2.8-0.1,4.3c0.5,2.4,1.5,4.5,2.6,6.7c1.2,2.3,2.5,4.6,3.7,7c3.1,6.3,4.4,12.8,3.1,19.8c-0.4,2.3-1,4.5-1.9,6.7
		c-0.3,0.8-0.2,1.2,0.8,1.1c4.7-0.6,9.3-1.6,13.9-2.8c1.4-0.4,1.5-0.5,0.7-1.7c-1.7-2.6-3.4-5.2-4.8-8c-4.3-8.5-4.1-22.4,5.9-30.9
		c2.1-1.8,4.2-3.7,6.3-5.5c5.9-5.1,8-11.7,7.7-19.3c-0.2-5.3-1.8-10.2-3.9-15c-2.9-6.6-5.3-13.2-4.8-20.6c0-0.6-0.2-1.1-0.9-1.1
		c-0.6,0-1.1-0.1-1.4,0.6c-0.1,0.3-0.2,0.6-0.3,0.9c-4.7,18.3-14.6,33.4-28.3,46.2c-6,5.6-12.4,10.6-18.6,15.9
		c-4.4,3.7-8.7,7.6-12.1,12.3c-3.8,5.3-5.7,11.2-5,17.8c0.6,6.1,4.2,9.9,10.4,10.8C914.6,599.1,920.9,599.6,928.1,599.7z"/>
	<path fill="#151D38" d="M956.8,446.1c1.2,0.2,1.2-0.3,0.9-1.2c-0.2-0.4-0.3-0.7-0.4-1.1c-4.4-11.9-11.3-22.2-20.7-30.8
		c-12-11-27.7-18.8-46.1-20.6c-7.8-0.8-15.6-0.6-23.4,0.9c-7.4,1.4-14.5,4-21.4,6.9c-7.1,3-14.2,6.3-21.6,8.6
		c-0.8,0.2-1.5,0.5-2.3,0.8c-0.3,0.1-0.9,0-0.9,0.5c0,0.5,0.5,0.5,0.8,0.8c0.3,0.2,0.6,0.3,0.8,0.5c14.1,7.1,29.1,10,44.8,8.7
		c13-1.1,25-5.1,36.1-11.9c2.3-1.4,2.8-1.2,3.8,1.4c1.1,2.7,2.4,5.4,4,7.9c8.1,13.4,19.8,21.9,34.7,26.3
		C949.5,444.8,953.1,445.6,956.8,446.1z"/>
	<path fill="#FAE0D6" d="M386.3,423.2c0-7.1-5.2-12.9-12.3-13.6c-5.8-0.6-10.6,2.4-15.6,4.6c-1.3,0.6-1.7,2.5-1.2,3.8
		c0.5,1.4,1.8,2.3,3.3,2.3c0.8,0,1.6-0.2,2.3-0.5c2-0.8,4-1.6,6-2.3c1.5-0.5,2.5,0.5,2.2,1.8c-0.2,0.7-0.8,1-1.4,1.2
		c-1.9,0.8-3.9,1.5-5.8,2.3c-0.8,0.3-1.3,0.8-1.4,1.7c-1.1,7.1-2.2,14.2-3.4,21.3c-0.2,1.1,0.1,1.8,1.2,2.3c2.8,1.3,5.6,2.3,8.7,2.7
		c1.5,0.2,2.4,0.8,3.4,2c14.7,18.4,29.5,36.8,44.2,55.2c1.7,2.1,1.5,1.7,3.1,0.5c5.5-4.1,10.9-8.1,16.3-12.2
		c1.8-1.3,1.8-1.4,0.4-3.2c-8.9-11.1-17.8-22.3-26.6-33.4c-7-8.8-14.1-17.6-21.1-26.4c-0.7-0.8-1.2-2-2.4-0.4
		c-0.4,0.6-1.3,0.5-1.9,0c-0.6-0.5-0.8-1.2-0.3-1.9c0.2-0.4,0.5-0.8,0.7-1.3C385.7,427.6,386.3,425.5,386.3,423.2z"/>
	<path fill="#151D38" d="M829.2,589.2c7.3,0.3,11.4-2.4,13.4-8.4c0.1-0.3,0.2-0.6,0.3-0.9c1.8-6.6,0.9-12.8-2-18.9
		c-2.3-4.8-5.3-9.1-8.5-13.3c-4.5-6-9.2-11.9-13.5-18.1c-10.7-15.5-17.3-32.3-18.1-51.3c0-0.9-0.1-1.8-0.2-2.6
		c0-0.5-0.3-0.7-0.8-0.7c-0.4,0-0.8,0-1,0.4c-0.2,0.6-0.4,1.2-0.6,1.8c-2.7,9.7-2.7,19.4-0.8,29.2c1.5,7.4,4.1,14.5,6.7,21.5
		c1.7,4.6,3.5,9.1,4.8,13.8c1.2,4.3,0.5,8.2-2,11.9c-1,1.5-2.2,3-3.3,4.5c-1.4,1.9-2.8,3.7-4.1,5.6c-3.2,4.8-4.5,10-4.2,15.7
		c0.1,1.3,0.2,2.4,1.8,3C807.9,586,818.9,588.5,829.2,589.2z"/>
	<path fill="#EBBE62" d="M374.6,327.6c0.3-1-0.4-1-1.2-0.8c-4.9,1-9.9,2-14.8,3c-19.7,3.9-39.5,7.8-59.2,11.8
		c-2.7,0.5-5.5,1.1-8.2,1.6c-0.3,0.1-0.7,0.1-0.7,0.5c0,0.2,0.3,0.4,0.5,0.5c0.4,0.3,0.8,0.5,1.2,0.7c20.5,11.5,41,22.9,61.5,34.4
		c3.5,1.9,7,3.9,10.5,5.8c1.2,0.6,1.3,0.6,1.5-0.7c0-0.2,0-0.5,0.1-0.7c2-12.7,4-25.4,6-38.1C372.7,339.6,373.7,333.7,374.6,327.6z"
		/>
	<path fill="#FFFFFF" d="M796,663.9c3,0,6.1,0,9.1,0c3.6,0,7.2,0,10.8,0c0.3,0,0.8,0,0.8-0.2c0.3-0.5-0.3-0.6-0.6-0.8
		c-2.2-1.5-4.2-3.3-5.8-5.4c-7.1-9.3-8.4-19.4-4-30.3c1.1-2.7,2.4-5.4,3.6-8.1c0.8-1.8,1.3-3.8,1.5-5.8c0.2-2,0-2.3-2-2.7
		c-4.1-0.9-8.1-1.9-12.1-3c-7.2-2.1-14.2-4.9-21-8c-1.5-0.7-1.6-0.7-1.6,1c0,3.9,0,7.8,0,11.8c0,3.1-0.5,3,2.9,3.1
		c2.7,0,3,0.3,3,3.1c0,5.2,0,10.4,0,15.6c0,3.8,0,3.8-3.9,3.9c-2,0.1-2,0.1-2,2c0,7.4,0,14.7,0,22.1c0,1.9,0,2,2,2
		C783.2,664,789.6,663.9,796,663.9z"/>
	<path fill="#EBBE62" d="M1065.7,393c0-0.6-0.2-0.7-0.6-0.5c-0.6,0.4-1.2,0.7-1.8,1.1c-17.5,10.8-35,21.6-52.4,32.3
		c-0.5,0.3-0.9,0.6-1.4,0.9c-0.5,0.3-0.6,0.7-0.1,1.1c0.4,0.3,0.7,0.6,1.1,0.9c9.5,7.4,19,14.9,28.5,22.3c1.8,1.4,3.7,2.8,5.5,4.3
		c0.7,0.5,1.1,0.5,1.3-0.4c0.1-0.4,0.2-0.8,0.3-1.1c1.7-5.2,3.4-10.3,5-15.5c4.7-14.6,9.4-29.2,14.1-43.8
		C1065.3,394.1,1065.5,393.5,1065.7,393z"/>
	<path fill="#FAE0D6" d="M1059.9,469.1c-3.1,0.5-6.6,0.6-10.1,1.5c-6.4,1.6-10.7,7.7-10.3,14.3c0.3,5.2,2.7,9.2,7.2,11.7
		c1.6,0.9,1.9,1.9,1.6,3.5c-0.5,2.5-1,5-1.5,7.5c-0.3,1.6-0.3,1.6,1.3,2.1c4.6,1.4,9.1,2.8,13.7,4.2c1.5,0.5,1.5,0.4,1.9-1.1
		c0.9-3.5,1.6-7,2.2-10.5c0.2-1.3,0.7-2,2-2.2c5.3-1.1,8.5-4.5,10.3-9.3c0.8-2,1.4-3.8-1.2-5c-0.2-0.1-0.3-0.3-0.5-0.5
		c-0.4-0.6-0.9-0.8-1.6-0.8c-3.3,0-5.4-1.6-6.6-4.5c-0.4-1.1-3.2-2.2-4.2-1.7c-1.4,0.8-2.9,0.9-4.4,1.1c-1.9,0.3-3.8,0.5-5.7,0.7
		c-1,0.1-1.8-0.2-1.9-1.3c-0.1-1.1,0.6-1.6,1.6-1.7c0.7-0.1,1.4-0.2,2.1-0.3c1.8-0.3,3.7-0.4,5.4-0.8c2.1-0.5,3.1-2.2,2.8-4.1
		C1063.8,470.1,1062.3,469,1059.9,469.1z"/>
	<path fill="#151D38" d="M806.9,638.5c0,7.7,3.2,15,8.6,19.8c2.5,2.3,5.4,3.9,8.6,5.1c0.8,0.3,1.4,0.2,1.6-0.8
		c0.1-0.4,0.2-0.8,0.3-1.2c1.3-5.9,2.5-11.9,3.8-17.8c1.3-6.3,2.7-12.5,3.9-18.8c1.2-6-2.3-10.9-8.2-11.9c-3.2-0.5-6.3-0.8-9.5-1.3
		c-1.1-0.2-1.4,0.2-1.4,1.3c0,3-1,5.8-2.2,8.5c-0.9,2.1-1.9,4.2-2.9,6.3C808,631.4,807.1,635.1,806.9,638.5z"/>
	<path fill="#151D38" d="M896.6,646.9c-0.2,0-0.3,0-0.5,0c0,5.1,0,10.2,0,15.3c0,1.7,0,1.7,1.7,1.7c4.9,0,9.8,0,14.6,0
		c1.2,0,1.9-0.5,2.3-1.6c1.6-3.6,2.6-7.4,2.7-11.4c0.1-4.8-1.1-9.3-2.3-13.9c-1.2-4.3-2.1-8.6-1.2-13c0.2-0.9-0.2-1.2-0.9-1.3
		c-2.1-0.2-4.1-0.5-6.2-0.6c-5.8-0.2-10.2,4-10.3,9.7C896.6,637,896.6,641.9,896.6,646.9z"/>
	<path fill="#151D38" d="M916.8,628c0,4,1.3,7.7,2.3,11.5c0.2,0.9,0.9,1,1.6,1.3c3.6,1.3,7.3,2,11,1.9c9.6-0.2,17.7-3.9,24.2-11
		c2.9-3.2,5-6.8,6.4-10.9c0.5-1.5,0.3-1.7-1.3-1.3c-0.2,0-0.5,0.2-0.7,0.2c-13,3-26.1,4.4-39.5,3.8c-3.7-0.2-4,0.1-4.1,3.8
		C916.8,627.5,916.8,627.8,916.8,628z"/>
	<path fill="#FAE0D6" d="M771.7,651c0-3.8,0-7.5,0-11.3c0-1.8-0.1-1.8-1.7-1.9c-7.1,0-14.2,0-21.3,0c-1.2,0-1.5,0.5-1.5,1.6
		c0,7.7,0,15.3,0,23c0,1.2,0.4,1.5,1.6,1.5c7.1,0,14.2,0,21.3,0c1.3,0,1.7-0.5,1.6-1.7C771.7,658.5,771.7,654.8,771.7,651z"/>
	<path fill="#FAE0D6" d="M645.2,650.8c0,3.8,0,7.5,0,11.3c0,1.8,0,1.8,1.7,1.8c5.2,0,10.4,0,15.6,0c1.3,0,1.6-0.5,1.6-1.7
		c0-7.5,0-15,0-22.5c0-1.7-0.1-1.8-1.7-1.8c-5.2,0-10.4,0-15.6,0c-1.3,0-1.6,0.4-1.6,1.7C645.2,643.3,645.2,647.1,645.2,650.8z"/>
	<path fill="#EDCFE4" d="M759.4,634.7c4.7,0,9.4,0.1,14.2,0c4.8-0.1,3.9,1,4.1-4.2c0-1.3-0.5-1.6-1.7-1.6c-2.6,0.1-5.1,0-7.7,0
		c-1.7,0-2.5-0.6-2.5-1.6c0-1,0.8-1.6,2.5-1.6c2.2,0,4.5,0,6.7,0c0.5,0,1,0,1.4,0c0.9,0,1.3-0.4,1.2-1.3c0-1.6,0-3.2,0-4.8
		c0-0.8-0.3-1.2-1.1-1.2c-0.6,0-1.1,0-1.7,0c-9.5,0-19,0-28.5,0c-1.6,0-3.6-0.7-4.6,0.3c-1.1,1.1-0.4,3.2-0.4,4.8
		c-0.1,2.1,0,2.1,2.1,2.1c4.8,0,9.6,0,14.4,0c1.7,0,2.5,0.6,2.5,1.6c0,1-0.8,1.6-2.5,1.6c-0.4,0-0.8,0-1.2,0c-3.8,0-7.7,0-11.5,0
		c-4.5,0.1-3.8-0.8-3.8,4c0,1.8,0,1.8,1.9,1.8C748.5,634.8,754,634.7,759.4,634.7z"/>
	<path fill="#FAE0D6" d="M586.4,663.9c3.4,0,6.9,0,10.3,0c2,0,2.1-0.1,1.8-2c-0.9-4.3-1.8-8.6-2.7-12.9c-0.4-1.7-0.4-1.7-2-1.4
		c-6.8,1.5-13.5,3.1-20.3,4.7c-1.1,0.2-1.5,0.6-1.2,1.8c0.6,2.7,1.2,5.4,1.7,8.2c0.2,1.4,0.9,1.6,2.1,1.6
		C579.5,663.9,583,663.9,586.4,663.9z"/>
	<path fill="#EDCFE4" d="M652,634.7c3.4,0,6.7,0,10.1,0c2,0,2,0,2-1.9c0-4.2,0-8.3,0-12.5c0-1.9,0-1.9-2-1.9c-6.3,0-12.6,0-18.9,0
		c-3.8,0-3.3-0.6-3.3,3.3c0,4,0,4,4,4c4.3,0,8.6,0,13,0c1,0,1.7,0.4,1.9,1.5c0.1,1-0.6,1.6-1.9,1.7c-0.5,0-1,0-1.4,0
		c-3.8,0-7.7-0.1-11.5,0c-4.7,0.1-3.9-1-4,4.3c0,1.3,0.5,1.6,1.7,1.6C644.9,634.7,648.4,634.7,652,634.7z"/>
	<path fill="#F08D20" d="M580.9,639.8c1.1,0,1.8,0.2,2,1.2c0.1,0.9-0.3,1.5-1.2,1.8c-0.5,0.1-1.1,0.3-1.6,0.4
		c-3,0.7-6.1,1.3-9.1,2.1c-3.1,0.8-2.6,0.2-2.1,3.4c0.2,1.2,0.7,1.4,1.8,1.1c8.3-2,16.6-3.9,25-5.8c1.9-0.4,1.9-0.5,1.5-2.4
		c0-0.2-0.1-0.5-0.2-0.7c-0.1-1.3-0.8-1.5-2-1.2c-1.7,0.5-3.4,0.8-5.1,1.2c-2,0.4-2.8,0.2-3.1-0.9c-0.3-1,0.4-1.7,2.3-2.1
		c1.2-0.3,2.5-0.6,3.7-0.9c3.3-0.7,3.3-0.7,2.5-4c-0.4-1.6-0.4-1.7-2-1.3c-7.7,1.8-15.4,3.6-23.1,5.3c-3.8,0.9-3.8,0.8-2.8,4.6
		c0.3,1.1,0.8,1.1,1.7,0.9c2.7-0.7,5.4-1.3,8.2-1.9C578.4,640.4,579.7,640.1,580.9,639.8z"/>
	<path fill="#F08D20" d="M443.9,499.1c-0.3-0.4-0.6-0.9-1-1.4c-1.3-1.8-1.4-1.8-3.1-0.5c-6.6,4.9-13.2,9.9-19.8,14.8
		c-0.3,0.2-0.6,0.5-1,0.7c-0.6,0.4-0.7,0.8-0.2,1.4c0.3,0.4,0.6,0.8,0.9,1.1c1.1,1.4,1,1.6,2.6,0.4c2.7-2.1,5.5-4.1,8.3-6.2
		c0.5-0.4,1-0.8,1.6-1.1c0.7-0.4,1.4-0.4,1.9,0.3c0.5,0.7,0.5,1.5-0.2,2.2c-0.4,0.4-0.9,0.7-1.3,1c-2.4,1.8-4.7,3.5-7.1,5.3
		c-2.8,2.1-2.8,2.1-0.6,4.7c1.1,1.3,1.1,1.3,2.4,0.3c6.9-5.1,13.7-10.3,20.6-15.4c1-0.7,1.1-1.2,0.4-2.2c-2.1-2.8-2.1-2.8-4.8-0.8
		c-1.3,1-2.6,1.9-3.9,2.8c-0.7,0.5-1.5,0.6-2.2-0.1c-0.7-0.8-0.5-1.6,0.3-2.3c0.4-0.3,0.8-0.6,1.1-0.9c1.4-1.1,2.8-2.1,4.2-3.2
		C443.4,499.9,443.8,499.7,443.9,499.1z"/>
	<path fill="#151D38" d="M893.1,579.5c2,0.1,2,0.1,2.5-1.9c0.2-0.7,0.3-1.4,0.6-2.1c0.3-0.9,0.2-1.3-0.9-1.4
		c-1.8-0.1-3.7-0.4-5.5-0.6c-13.3-1.5-26.7-3.1-40-4.6c-3.4-0.4-3.3-0.7-3,2.7c0.2,2.5,0.2,2.6,2.6,2.8c0.3,0,0.6,0,1,0.1
		c7.9,0.9,15.9,1.8,23.8,2.7C880.6,578.1,886.8,578.8,893.1,579.5z"/>
	<path fill="#151D38" d="M832.2,419.3c0.1-0.6-0.4-0.7-0.7-0.8c-1.3-0.5-2.7-1-4-1.6c-1-0.5-1.7-0.3-2.5,0.5
		c-2.3,2.6-4.6,5.3-6.6,8.2c-3.7,5.2-6.7,10.8-9,16.8c-0.2,0.5-0.7,1-0.2,1.5c0.4,0.4,0.9-0.1,1.3-0.2c1.2-0.5,2.5-1.1,3.7-1.7
		c8.8-5,14.2-12.8,17.9-22C832.1,419.8,832.1,419.5,832.2,419.3z"/>
	<path fill="#151D38" d="M706.5,540.1c3.4,0.1,6.7-0.2,10.1-0.4c10.4-0.6,20.6-2.3,30.7-5c0.5-0.1,0.9-0.2,1.4-0.4
		c1-0.5,0.5-1.4,0.4-2.1c-0.1-0.8-0.8-0.6-1.3-0.4c-0.9,0.2-1.9,0.5-2.8,0.7c-10.4,2.5-21,4-31.7,4.5c-9.8,0.4-19.5,0-29.1-1.5
		c-5.1-0.8-10.2-1.9-15.2-3.4c-0.4-0.1-1.2-0.6-1.3,0.3c-0.1,0.7-0.7,1.6,0.4,2.1c0.5,0.2,1.1,0.4,1.6,0.5
		C681.7,538.8,694,540,706.5,540.1z"/>
	<path fill="#F08D20" d="M523.7,560.8c4.9,0.2,10.3-0.3,15.7-1c4.7-0.6,9.3-1.5,13.8-2.8c1.3-0.4,1.7-1.3,1.4-2.7
		c-0.3-1.3-1.3-0.6-1.9-0.5c-5.4,1.3-10.8,2.2-16.3,2.8c-10.1,1.1-20.2,0.9-30.3-0.5c-4.3-0.6-8.5-1.4-12.7-2.4
		c-0.5-0.1-1.1-0.4-1.6,0c-0.6,0.5-0.2,2.8,0.6,3.1c0.5,0.2,1.1,0.3,1.6,0.5C503.5,559.6,513.2,561,523.7,560.8z"/>
	<path fill="#FAE0D6" d="M345,412.9c-0.1,1.7,0.3,3.4,1.4,4.7c1.4,1.8,3,3.6,4.6,5.2c1.3,1.4,3.1,1.5,4.6,0.4
		c0.6-0.5,1.1-0.9,0.3-1.7c-1.4-1.4-2.1-3.2-2-5.2c0-0.9-0.4-1.5-1-2.1c-0.7-0.8-1.4-1.5-2-2.4c-0.4-0.6-0.4-1.4,0.3-1.9
		c0.6-0.5,1.3-0.5,2,0c0.5,0.4,0.9,0.9,1.3,1.4c0.6,0.7,1.1,1.1,1.9,0.3c0.6-0.6,1.5-1,2.3-1.2c0.9-0.3,1-0.7,0.5-1.5
		c-1.8-2.7-5.4-4-8.7-3C347.4,406.7,345.2,409.6,345,412.9z"/>
	<path fill="#FAE0D6" d="M1066,457.9c-4.1,0-7.7,3.3-7.9,7.2c0,0.7,0.1,1.1,0.9,1c0.3,0,0.7-0.2,0.9-0.1c2.5,0.6,3.8-0.2,4-2.9
		c0.1-0.8,0.9-1.3,1.9-1c0.9,0.3,1.2,1,1.1,1.9c-0.1,0.8-0.3,1.6-0.5,2.3c-0.3,1.1-0.4,2.1,0.3,3.2c0.9,1.4,1,3,0.7,4.6
		c-0.3,1.3,0.1,1.7,1.4,1.8c1.7,0,3.1-1.1,3.6-3c0.5-2,1-4,1.3-6.1C1074.3,462.3,1070.5,457.9,1066,457.9z"/>
	<path fill="#FFFFFF" d="M563.3,652.2c0,3.4,0,6.9,0,10.3c0,0.9,0.2,1.5,1.3,1.5c1.8-0.1,3.5,0,5.3,0c1,0,1.2-0.3,1-1.3
		c-0.6-2.6-1.1-5.3-1.6-8c-0.1-0.6-0.2-1.2-1-1.1c-1.7,0.2-1.9-1-2.2-2.3c-0.7-3.2-1.4-6.4-2-9.6c-0.1-0.3-0.1-0.8-0.4-0.8
		c-0.5,0.1-0.4,0.6-0.4,1C563.3,645.3,563.3,648.7,563.3,652.2z"/>
	<path fill="#FAE0D6" d="M1083.4,470.3c0.1-0.8-0.2-1.5-0.8-2.1c-1.9-2.3-5.3-1.6-6.5,1.5c-0.4,1-0.6,2-0.7,3
		c-0.4,2.2-1.3,4.1-3.3,5.3c-0.9,0.5-0.7,1.1-0.3,1.8c1.4,2.2,4.4,2.3,6,0c1.7-2.3,3.2-4.7,4.9-7.1
		C1083.2,472,1083.5,471.3,1083.4,470.3z"/>
	<path fill="#FAE0D6" d="M350.8,431.8c2.1,0,3.7-1.7,3.5-3.7c0-0.6-0.3-1.1-1-1.1c-2.8,0.1-4.5-1.6-6.1-3.6c-0.9-1-1.8-2.1-3.1-2.5
		c-2.1-0.8-4.4,0.5-4.8,2.6c-0.3,1.7,0.3,3.1,2,4c2.5,1.4,5.1,2.6,7.6,3.9C349.5,431.7,350.1,431.8,350.8,431.8z"/>
	<path fill="#151D38" d="M961.4,459.8c-0.5-3-1.1-6.2-2-9.4c-0.2-0.6-0.6-0.9-1.2-1c-2.6-0.3-5.2-0.8-7.8-1.4
		c-0.3-0.1-0.7-0.1-0.9,0.1c-0.4,0.3,0,0.7,0.1,1.1c1.7,3.3,3.7,6.3,6.6,8.7c1.3,1.1,2.7,2,4.2,2.7
		C961.1,461,961.5,460.9,961.4,459.8z"/>
	<path fill="#FAE0D6" d="M359.1,425.6c0-0.4,0.2-0.8-0.2-0.9c-0.3-0.1-0.5,0.3-0.7,0.5c-0.8,0.6-0.9,1.3-0.8,2.3
		c0.3,2.1-0.2,4.1-1.8,5.4c-1.7,1.4-2.8,2.9-3.6,5c-0.8,2.2-1.1,2.1,0.4,3.8c0.8,1,1.7,1.8,2.6,2.8c0.7,0.7,1,0.5,1.2-0.4
		c0.4-2.4,0.8-4.9,1.2-7.3C358,432.9,358.5,429.2,359.1,425.6z"/>
	<path fill="#FAE0D6" d="M345.8,438.2c1.6-0.1,2.8-0.7,3.5-2c0.4-0.7,0.2-1.1-0.5-1.5c-2.3-1.1-4.6-2.2-6.9-3.3
		c-0.6-0.3-1.2-1-1.9-0.5c-0.8,0.6-0.7,1.5-0.7,2.4c0,0.8,0.3,1.5,0.8,1.9C341.8,436.7,343.9,437.6,345.8,438.2z"/>
	<path fill="#FAE0D6" d="M1087.6,478.3c0-1.1-0.3-1.8-0.8-2.5c-0.9-1.1-1.6-1.5-2.6,0.1c-1.4,2.3-3,4.5-4.7,6.7
		c-0.6,0.8-0.3,1.1,0.3,1.5c1.4,1,3.4,0.9,4.6-0.5c1.1-1.3,2.1-2.6,2.8-4.1C1087.5,479,1087.6,478.5,1087.6,478.3z"/>
	<path fill="#FFFFFF" d="M563.3,631.3c0,1.1,0,2,0,2.9c0,0.5-0.1,1.2,0.8,1.1c0.8-0.1,1-0.6,0.9-1.3c-0.2-0.9-0.3-1.7-0.5-2.6
		c-0.2-0.9-0.2-2-0.9-2.8C562.9,629.4,563.4,630.5,563.3,631.3z"/>
	<path fill="#151D38" d="M905.3,225.8c0.1,0.6,0.7,0.5,1.1,0.8c1.5,1.1,2,2.8,1.4,4.4c-0.6,1.5-1.8,2.4-3.4,2.5
		c-1.7,0-3.1-0.9-3.7-2.5c-0.6-1.6,0-3.3,1.5-4.4c0.4-0.3,1-0.2,1.1-0.8C904,225.8,904.6,225.8,905.3,225.8z"/>
	<path fill="#151D38" d="M933.3,723.5c-38.5,0-76.9,0-115.4,0c-0.7,0-1.4,0-2.2,0c-0.9,0-1.5-0.6-1.5-1.5c0-1,0.7-1.4,1.6-1.4
		c0.6,0,1.1,0,1.7,0c77.3,0,154.7,0,232,0c0.7,0,1.4,0,2.1,0.1c0.7,0.1,1.1,0.7,1,1.4c0,0.7-0.4,1.3-1.1,1.4
		c-0.8,0.1-1.6,0.1-2.4,0.1C1010.6,723.5,971.9,723.5,933.3,723.5z"/>
	<path fill="#151D38" d="M456.3,699.4c-29.9,0-59.8,0-89.7,0c-0.7,0-1.4,0-2.2,0c-0.8-0.1-1.4-0.5-1.4-1.4c-0.1-1,0.5-1.4,1.4-1.6
		c0.3-0.1,0.6-0.1,1-0.1c0.5,0,1,0,1.4,0c59.6,0,119.3,0,178.9,0c0.9,0,1.8,0,2.6,0.1c0.8,0.1,1.3,0.6,1.3,1.4
		c0,0.9-0.6,1.5-1.5,1.5c-0.7,0-1.4,0-2.2,0C516.1,699.4,486.2,699.4,456.3,699.4z"/>
	<path fill="#151D38" d="M717,699.4c-22.8,0-45.6,0-68.4,0c-0.7,0-1.4,0-2.2-0.1c-0.8-0.1-1.3-0.6-1.3-1.4c0-0.9,0.5-1.4,1.3-1.5
		c0.6-0.1,1.3-0.1,1.9-0.1c45.7,0,91.5,0,137.2,0c0.7,0,1.4,0,2.1,0.2c0.8,0.2,1.2,0.8,1.1,1.6c-0.1,0.7-0.5,1.2-1.2,1.3
		c-0.8,0.1-1.6,0.1-2.4,0.1C762.4,699.4,739.7,699.4,717,699.4z"/>
	<path fill="#151D38" d="M793.4,283c0.1,0.9-0.4,1.4-0.8,1.8c-2,1.8-3.9,3.5-5.9,5.2c-1.4,1.2-2,1-3.2-0.4c-1.7-2.1-2.7-4.5-3-7.2
		c-0.3-3.1-0.5-3.2-3.5-4c-6-1.5-10.2-6-11-12.2c-0.2-1.1-0.2-2.2-0.9-3.2c-0.6-0.8-0.3-1.5,0.3-2.1c2.1-1.9,4.2-3.9,6.4-5.7
		c1-0.8,1.9-0.6,2.7,0.4c1.5,1.8,2.5,3.9,3,6.2c0.1,0.7,0.3,1.4,0.3,2.1c0,1.9,1.1,2.7,2.8,3c3.5,0.6,6.4,2.4,8.6,5.2
		c1.4,1.8,2.4,3.8,2.8,6C792.4,279.9,792.3,281.7,793.4,283z"/>
	<path fill="#EBBE62" d="M768.6,263.1c0,3.3,1.1,6.5,3,8.7c1.8,2.2,4.2,3.4,6.9,3.9c3.2,0.7,4.5,2.2,4.8,5.4c0.2,1.4,0.4,2.9,1,4.2
		c0.7,1.7,1,1.7,2.3,0.6c0.7-0.6,1.3-1.2,2-1.7c0.8-0.6,1.1-1.3,0.8-2.3c-0.2-0.5-0.2-1.1-0.3-1.7c-0.7-5.3-3.7-8.8-8.9-10.1
		c-4.3-1.1-5.1-2-5.6-6.5c-0.2-1.4-0.6-2.8-1.3-4.1c-0.3-0.5-0.6-0.7-1.1-0.3c-1.1,0.9-2.1,1.9-3.2,2.9
		C768.7,262.4,768.5,262.7,768.6,263.1z"/>
	<path fill="#151D38" d="M372.9,519.2c0.1,1.5-0.3,3-0.7,4.5c-0.6,2.2-0.5,2.7,1.3,3.8c4.9,2.9,8.2,9.8,6,16.8
		c-0.2,0.5-0.3,1.1-0.3,1.6c0,2.2,0,2.2-1.8,2.9c-2.2,0.8-4.5,1.7-6.8,2.4c-1.8,0.6-2.4,0.3-3-1.6c-0.8-2.7-0.7-5.4,0-8
		c0.7-2.7,0.6-2.9-1.5-4.4c-5.5-4-7.6-9.6-5.9-16.2c0.2-0.8,0.6-1.5,0.3-2.3c-0.4-1.3,0.3-2,1.4-2.4c2.5-0.9,5-1.8,7.4-2.7
		c1.6-0.5,2.2-0.3,2.7,1.3C372.7,516.3,373,517.7,372.9,519.2z"/>
	<path fill="#EBBE62" d="M369.8,519.5c0.1-2.3-0.2-2.5-2.3-1.8c-0.8,0.3-1.7,0.6-2.5,0.9c-0.4,0.2-1,0.3-1,0.9
		c-0.4,2.6-1.6,5.2-0.8,8c0.8,3.1,2.4,5.6,5.1,7.3c1.5,0.9,2.6,2.1,3,3.8c0.3,1.3,0,2.4-0.3,3.5c-0.4,1.6-0.7,3.1-0.5,4.7
		c0.1,0.4,0.1,1.1,0.8,0.9c1.5-0.5,3.1-1,4.5-1.6c1.1-0.5,0.6-1.9,1-2.8c1-2.7,0.8-5.3-0.3-7.9c-1-2.3-2.6-3.9-4.7-5.3
		c-2.6-1.8-3.3-3.6-2.6-6.5C369.4,522.2,369.8,520.9,369.8,519.5z"/>
	<path fill="#151D38" d="M982.7,363.1c-0.5,0-0.9-0.1-1.3-0.4c-2.2-1.6-4.4-3.2-6.6-4.8c-1.3-1-1.3-1.7-0.3-3
		c1.5-1.9,3.4-3.3,5.7-4.3c0.7-0.3,1.4-0.5,2-0.7c1.2-0.4,1.9-1.2,1.8-2.5c0-0.9,0.1-1.8,0.2-2.6c0.7-5.8,3.8-9.8,9.3-12
		c1.1-0.4,2.3-0.6,3.2-1.6c0.6-0.7,1.5-0.5,2.2,0c2.3,1.6,4.6,3.2,6.8,4.9c1.2,0.9,1.2,1.6,0.3,2.9c-1.7,2.3-4.1,3.8-6.8,4.7
		c-2.8,1-2.9,1.2-3,4.1c-0.2,6.4-3.7,11.3-9.7,13.5c-1,0.4-2,0.6-2.7,1.4C983.5,363,983.2,363.1,982.7,363.1z"/>
	<path fill="#EBBE62" d="M982.5,359.3c0.2,0,0.4,0,0.5-0.1c3.7-1.2,7.1-2.8,9-6.6c0.9-1.8,1.2-3.6,1.2-5.6c0-3.6,1.1-5,4.5-6.2
		c1.1-0.4,2.2-0.8,3.3-1.5c2.1-1.4,2.1-1.5,0-3c-0.6-0.5-1.3-0.9-1.9-1.4c-0.4-0.3-0.8-0.6-1.3-0.4c-3.5,1.1-6.9,2.5-8.8,6
		c-1.2,2.1-1.5,4.3-1.5,6.7c0,2.9-1.3,4.5-4,5.5c-1,0.4-2.1,0.7-3.1,1.2c-2.7,1.5-2.7,1.8-0.2,3.5
		C980.7,358.3,981.5,359.1,982.5,359.3z"/>
	<path fill="#151D38" d="M650.5,242.2c0.2,0.1,0.6,0.2,0.9,0.4c2.3,0.9,4.6,1.8,6.9,2.7c1.9,0.8,2.1,1.4,1.2,3.3
		c-1.1,2.5-2.9,4.4-5.1,5.9c-2.4,1.6-2.5,1.8-1.8,4.5c1.5,6.5-0.7,12.1-6.2,15.9c-0.6,0.4-1.2,0.8-1.7,1.3c-1.5,1.6-1.5,1.7-3.4,1
		c-2.1-0.8-4.2-1.6-6.2-2.4c-2.3-0.9-2.5-1.5-1.4-3.8c1.1-2.3,2.8-4.1,4.9-5.5c2.6-1.8,2.6-1.8,1.9-4.7c-1.4-6.3,0.8-12,6.1-15.7
		c0.9-0.6,1.7-1.1,2.2-2.1C649.1,242.4,649.6,242.1,650.5,242.2z"/>
	<path fill="#EDCFE4" d="M641.8,273.8c1-0.2,1.6-0.9,2.3-1.4c5-3.4,6.6-7.4,5.3-13.2c-0.8-3.6-0.3-5.1,2.9-7.3
		c1.2-0.8,2.3-1.7,3.2-2.9c0.6-0.8,0.8-1.4-0.4-1.8c-1.1-0.3-2.1-0.8-3.1-1.2c-0.7-0.3-1.4-0.3-2,0.3c-0.4,0.4-0.9,0.6-1.4,1
		c-4.7,3.2-6.3,7.3-5.1,12.8c0.9,3.8,0.3,5.3-2.9,7.5c-1.3,0.9-2.6,1.9-3.5,3.3c-0.2,0.3-0.5,0.8,0,1
		C638.8,272.6,640.4,273.2,641.8,273.8z"/>
	<path fill="#151D38" d="M388.3,232.5c0.1,1.5-0.3,2.9-0.6,4.3c-0.6,2.4-0.6,2.7,1.4,4c2.8,1.8,4.7,4.3,5.8,7.4
		c0.9,2.5,1,5.2,0.5,7.8c-0.3,1.4-1,2.7-0.6,4.2c0.2,0.7-0.5,1.3-1.2,1.6c-2.6,1-5.2,1.9-7.9,2.8c-1.4,0.5-2,0.1-2.5-1.4
		c-0.9-2.7-0.9-5.3-0.2-8c0.8-3.1,0.8-3.1-1.7-4.9c-5.1-3.7-7.1-9.4-5.6-15.6c0.2-0.9,0.7-1.8,0.4-2.8c-0.3-1.1,0.2-1.8,1.3-2.2
		c2.6-0.9,5.1-1.9,7.7-2.8c1.6-0.5,2.2-0.1,2.7,1.5C388.1,229.6,388.4,231,388.3,232.5z"/>
	<path fill="#EDCFE4" d="M385.2,232.9c0.1-2.6-0.2-2.8-2.3-2c-0.3,0.1-0.6,0.2-0.9,0.3c-1.8,0.4-2.8,1.3-3.1,3.3
		c-0.3,2.1-0.9,4-0.4,6.1c0.8,3.2,2.6,5.6,5.3,7.4c2.8,1.9,3.4,3.7,2.5,7c-0.3,1.2-0.6,2.3-0.6,3.5c-0.1,2.3,0.2,2.6,2.3,1.8
		c0.8-0.3,1.6-0.6,2.5-0.9c0.4-0.1,0.9-0.2,1-0.6c0.5-2.6,1.7-5.2,1-8c-0.8-3.2-2.4-5.7-5.1-7.5c-3.1-2.1-3.7-3.8-2.7-7.4
		C384.9,234.9,385.1,233.8,385.2,232.9z"/>
	<path fill="#151D38" d="M837.7,349.2c0.1-0.9-0.3-1.3-0.7-1.7c-1.2-1.2-2.4-2.3-3.6-3.5c-0.6-0.6-1.3-1.3-0.9-2.3
		c0.4-0.9,1.2-1,2-1c1.6-0.1,3.2-0.2,4.8-0.2c1,0,1.6-0.3,2-1.3c0.7-1.9,1.5-3.7,2.3-5.5c0.4-0.8,0.7-1.7,1.8-1.7
		c1.1,0,1.5,0.8,1.8,1.6c0.8,1.8,1.6,3.5,2.2,5.3c0.4,1.1,1,1.6,2.3,1.6c1.5,0,3,0.1,4.5,0.2c0.8,0,1.7,0.1,2,1
		c0.4,1-0.2,1.7-0.9,2.3c-1.1,1-2,2-3.1,3c-1,0.9-1.4,1.7-1,3.1c0.6,1.7,0.9,3.6,1.3,5.3c0.2,0.8,0.3,1.6-0.5,2.1
		c-0.8,0.5-1.5,0.2-2.2-0.3c-1.7-1.3-3.5-2.5-5.2-3.8c-0.8-0.7-1.5-0.7-2.3,0c-1.6,1.3-3.4,2.4-5,3.7c-0.7,0.5-1.5,1-2.4,0.4
		c-0.9-0.6-0.7-1.5-0.5-2.4c0.4-1.8,0.9-3.6,1.3-5.3C837.6,349.6,837.7,349.3,837.7,349.2z"/>
	<path fill="#EDCFE4" d="M852.3,344.3c-0.1-0.6-0.6-0.6-0.9-0.6c-3.1,0.5-4.3-1.3-5.1-3.8c0-0.2-0.1-0.3-0.2-0.4
		c-0.2-0.4-0.4-1.2-0.7-1.2c-0.7,0-0.7,0.8-1,1.2c-0.1,0.2-0.2,0.4-0.3,0.7c-0.7,2.4-1.9,4-4.7,3.5c-0.2,0-0.3,0-0.5,0.1
		c-0.2,0.1-0.5,0.1-0.6,0.2c-0.2,0.4,0.1,0.6,0.3,0.8c2.3,1.6,2.9,3.6,1.8,6.2c0,0.1,0,0.2,0,0.2c0,0.2,0.1,0.5,0.1,0.7
		c0.2,0,0.5,0,0.7-0.2c0.9-0.6,1.7-1.2,2.5-1.8c1-0.8,2-0.9,3-0.1c0.7,0.6,1.5,1.1,2.3,1.7c0.3,0.2,0.6,0.7,1,0.4
		c0.4-0.3,0.1-0.8-0.1-1.1c-0.9-2.4-0.6-4.3,1.6-5.8C852,344.8,852.2,344.5,852.3,344.3z"/>
	<path fill="#151D38" d="M481.7,293.6c0.4-1.7,0.7-3.7,1.4-5.6c0.5-1.5,0.1-2.4-1-3.3c-1.2-1-2.2-2.1-3.3-3.2
		c-0.6-0.6-1-1.3-0.6-2.1c0.3-0.8,1.1-0.9,1.8-0.9c1.5-0.1,3-0.3,4.5-0.2c1.5,0.1,2.1-0.6,2.6-1.9c0.6-1.7,1.4-3.4,2.1-5.1
		c0.3-0.7,0.7-1.5,1.7-1.5c1.1,0,1.5,0.7,1.9,1.6c0.8,1.9,1.7,3.8,2.5,5.7c0.3,0.8,0.8,1.1,1.6,1.1c1.6,0,3.2,0.2,4.8,0.3
		c0.9,0.1,1.8-0.1,2.2,1c0.4,1.1-0.4,1.8-1.1,2.5c-1,1-2,2.1-3.1,3c-1,0.8-1.2,1.8-0.8,3c0.5,1.7,0.9,3.4,1.3,5.1
		c0.2,0.8,0.4,1.8-0.5,2.4c-0.9,0.5-1.7,0-2.4-0.5c-1.4-1-2.8-2.1-4.3-3.1c-2.3-1.6-1.7-1.5-3.8,0.1c-1.6,1.1-3.1,2.3-4.7,3.3
		C482.9,296.1,481.7,295.4,481.7,293.6z"/>
	<path fill="#EBBE62" d="M496,289.6l-0.2,0.1L496,289.6c-0.2-0.6-0.2-1.3-0.4-1.9c-0.7-1.9-0.4-3.4,1.4-4.6c0.3-0.2,0.6-0.5,0.8-0.8
		c0.5-0.6,0.2-0.8-0.4-0.9c-0.3,0-0.6-0.1-1,0c-2,0.3-3.3-0.5-3.9-2.5c-0.3-1-0.6-2.7-1.5-2.7c-0.9,0-1.2,1.7-1.5,2.7
		c-0.7,1.9-1.8,2.9-3.9,2.6c-0.5-0.1-1.4-0.2-1.6,0.2c-0.3,0.7,0.6,1,1,1.4c0.1,0.2,0.3,0.4,0.5,0.5c1.3,0.9,1.5,2.1,1,3.6
		c-0.3,0.8-0.6,1.7-0.3,2.5c-0.1-0.1-0.2-0.2-0.3,0c0,0,0.1,0.1,0.1,0.1c0.3,0.1-0.2,0,0.1-0.1c1.1-0.3,1.9-1.1,2.8-1.7
		c1.9-1.3,2-1.3,4,0C493.9,288.5,494.6,289.7,496,289.6z"/>
	<path fill="#151D38" d="M1094.6,573.4c0.5-2,0.9-4.1,1.5-6c0.3-1.1,0-1.8-0.8-2.5c-1.2-1.1-2.4-2.3-3.6-3.5c-0.6-0.6-1-1.3-0.6-2.1
		c0.3-0.8,1.1-0.9,1.8-0.9c1.6-0.1,3.2-0.2,4.8-0.2c1.2,0,1.7-0.4,2.1-1.5c0.7-1.9,1.6-3.7,2.3-5.5c0.3-0.8,0.7-1.5,1.6-1.6
		c1,0,1.5,0.7,1.8,1.6c0.8,1.9,1.7,3.8,2.5,5.7c0.3,0.8,0.8,1.2,1.8,1.2c1.6,0,3.2,0.1,4.8,0.2c0.9,0.1,1.8,0.1,2.1,1.2
		c0.3,0.9-0.3,1.5-0.9,2.1c-1.2,1.2-2.4,2.4-3.6,3.5c-0.8,0.7-0.9,1.4-0.6,2.3c0.5,1.8,0.9,3.6,1.3,5.4c0.2,0.6,0.3,1.3,0,1.9
		c-0.4,0.9-1.5,1.1-2.7,0.4c-1.7-1.2-3.4-2.3-5-3.7c-1.1-0.9-1.8-0.8-2.9,0c-1.7,1.4-3.5,2.6-5.2,3.8c-0.6,0.5-1.4,0.5-2,0
		C1094.6,574.7,1094.4,574,1094.6,573.4z"/>
	<path fill="#EBBE62" d="M1103.8,566.7c1.1,0.3,1.9,1.1,2.7,1.6c0.7,0.4,1.4,1.5,2,1.1c0.7-0.4,0-1.5-0.2-2.2
		c-0.6-1.7-0.2-2.9,1.2-4c0.1-0.1,0.3-0.2,0.3-0.3c0.3-0.5,1.3-0.7,1-1.4c-0.2-0.5-1-0.2-1.6-0.2c-2,0.1-3.3-0.5-3.9-2.6
		c-0.3-1-0.6-2.7-1.5-2.8c-0.8,0-1.2,1.7-1.5,2.7c-0.6,1.9-1.7,2.8-3.7,2.7c-0.6,0-1.5-0.3-1.8,0.2c-0.3,0.7,0.7,1.1,1.1,1.6
		c0.2,0.2,0.4,0.5,0.7,0.7c0.9,0.7,1.1,1.7,0.8,2.8c-0.2,1-1.1,2.4-0.4,2.8c0.7,0.4,1.6-1,2.5-1.5c0.4-0.2,0.8-0.6,1.2-0.8
		C1103.1,566.9,1103.5,566.8,1103.8,566.7z"/>
	<path fill="#151D38" d="M388.9,621.3c0.5-2.3,0.9-4.3,1.5-6.1c0.5-1.4,0-2.2-1-3.1c-1.1-1-2.2-2.1-3.3-3.2c-0.6-0.6-1-1.3-0.7-2.1
		c0.3-1,1.2-0.9,2-1c1.6-0.1,3.2-0.3,4.8-0.2c1.1,0,1.6-0.4,1.9-1.4c0.7-1.9,1.6-3.7,2.3-5.5c0.4-0.8,0.7-1.6,1.8-1.6
		c1,0,1.3,0.7,1.7,1.5c0.8,1.9,1.7,3.8,2.4,5.7c0.3,0.8,0.8,1.2,1.8,1.2c1.5,0,3,0.1,4.5,0.2c0.9,0.1,2-0.1,2.4,1.1
		c0.3,1-0.4,1.6-1,2.3c-1.1,1.1-2.3,2.3-3.5,3.3c-0.8,0.7-0.9,1.4-0.7,2.3c0.5,1.8,0.9,3.7,1.4,5.6c0.2,0.9,0.3,1.8-0.6,2.3
		c-0.8,0.5-1.5,0.1-2.2-0.4c-1.6-1.2-3.3-2.2-4.8-3.5c-1.2-1-2-0.8-3.1,0.1c-1.6,1.3-3.3,2.5-5,3.7c-0.6,0.4-1.3,0.6-2,0.1
		C389,622.3,388.8,621.7,388.9,621.3z"/>
	<path fill="#EDCFE4" d="M393.3,616.7c0,0.5,0.3,0.5,0.6,0.3c0.4-0.2,0.8-0.5,1.2-0.8c3.5-2.5,2.8-2.5,6.3,0
		c0.5,0.4,1.2,1.2,1.6,0.9c0.6-0.5,0.1-1.3-0.2-2c-0.6-1.8-0.4-3.3,1.3-4.4c0.1-0.1,0.3-0.2,0.3-0.3c0.3-0.4,1.1-0.7,0.8-1.3
		c-0.2-0.4-0.9-0.3-1.3-0.2c-2.2,0.2-3.6-0.6-4.3-2.8c-0.3-0.9-0.5-2.5-1.4-2.5c-0.8,0-1.1,1.6-1.4,2.5c-0.6,2.1-1.8,3.1-4,2.9
		c-0.5-0.1-1.3-0.3-1.5,0.2c-0.3,0.7,0.6,1,1,1.5c0.1,0.2,0.3,0.4,0.5,0.5c1.3,0.9,1.5,2.1,1,3.6
		C393.5,615.2,393.4,615.9,393.3,616.7z"/>
	<path fill="#151D38" d="M933.6,751.2c7.1,0,14.2,0,21.4,0c0.6,0,1.3,0,1.9,0c0.7,0,1.2,0.4,1.3,1.2c0.1,0.8-0.3,1.4-1.1,1.6
		c-0.5,0.1-1.1,0.1-1.7,0.1c-14.6,0-29.3,0-43.9,0c-0.1,0-0.2,0-0.2,0c-1.7,0-2.5-0.5-2.5-1.5c0-1,0.7-1.4,2.5-1.4
		C918.7,751.2,926.1,751.2,933.6,751.2z"/>
	<path fill="#151D38" d="M590.4,738.5c4.1,0,8.1,0,12.2,0c0.5,0,1,0,1.4,0c0.9,0,1.5,0.5,1.6,1.4c0.1,1.1-0.7,1.5-1.7,1.6
		c-0.5,0-1,0-1.4,0c-8.1,0-16.3,0-24.4,0c-0.7,0-1.4,0-2.1-0.2c-0.7-0.1-1.1-0.7-1-1.4c0-0.7,0.4-1.3,1.1-1.4
		c0.6-0.1,1.3-0.1,1.9-0.1C582.1,738.5,586.2,738.5,590.4,738.5z"/>
	<path fill="#151D38" d="M526.6,329.9c0.1-2,2-3.8,3.9-3.7c1.9,0.1,3.6,1.8,3.6,3.8c0,2.1-1.7,3.8-3.8,3.8
		C528.2,333.7,526.5,331.9,526.6,329.9z"/>
	<path fill="#151D38" d="M1059.8,637.9c0,2.2-1.6,3.7-3.8,3.6c-2.1-0.1-3.5-1.5-3.6-3.6c0-2.2,1.5-3.7,3.7-3.7
		C1058.4,634.1,1059.9,635.7,1059.8,637.9z"/>
	<path fill="#151D38" d="M303.2,555.2c-2.1,0-3.6-1.4-3.7-3.5c-0.1-2.3,1.4-3.8,3.6-3.8c2.1,0,3.7,1.4,3.8,3.5
		C306.9,553.5,305.3,555.2,303.2,555.2z"/>
	<path fill="#151D38" d="M862.5,271c1,0,1.8,0.8,1.8,1.9c0,1.1-0.9,2-2,1.9c-1-0.1-1.7-0.9-1.7-2C860.7,271.7,861.5,270.9,862.5,271
		z"/>
	<path fill="#151D38" d="M693.2,390.2c8.8,0,17.6,0,26.4,0c3.5,0,4,0.7,2.2,3.8c-5.2,9.1-12.5,15.6-23.1,17.5
		c-12.6,2.3-22.9-2-31-11.8c-1.4-1.7-2.6-3.6-3.7-5.6c-1.6-3.1-1.2-3.8,2.2-3.8C675.3,390.2,684.2,390.2,693.2,390.2z"/>
	<path fill="#FFFFFF" d="M693.1,393.3c-7.7,0-15.3,0-23,0c-0.6,0-1.1,0-1.7,0c-0.7,0-0.9,0.4-0.5,0.9c0.9,1.3,1.7,2.7,2.7,3.9
		c6.1,7.3,13.9,11.3,23.4,10.8c10.1-0.5,17.8-5.6,23.4-13.9c0.1-0.2,0.3-0.4,0.4-0.6c0.4-0.7,0.5-1.2-0.6-1.2c-0.6,0-1.1,0-1.7,0
		C708.1,393.3,700.6,393.3,693.1,393.3z"/>
	<path fill="#151D38" d="M652.3,397.9c0,1.4-0.6,1.8-1.4,2.2c-1.8,1-3.6,2.1-5.4,3.1c-4.1,2.4-8.3,4.8-12.4,7.1
		c-2.1,1.2-2.5,1.1-3.8-1.1c-0.5-0.9-1.1-1.8-1.5-2.7c-0.8-1.6-0.7-2.1,0.9-3.1c0.9-0.6,1.9-1.1,2.9-1.7c5-2.9,9.9-5.7,14.9-8.6
		c2.1-1.2,2.5-1.1,3.8,1.1c0.5,0.9,1,1.8,1.6,2.7C652.1,397.4,652.3,397.8,652.3,397.9z M648.4,397.4c-0.1-0.2-0.2-0.5-0.4-0.7
		c-0.4-0.6-0.9-0.1-1.2,0.1c-4.9,2.8-9.8,5.6-14.7,8.4c-0.6,0.4-1,0.7-0.5,1.5c0.5,0.7,0.9,0.4,1.4,0.1c4.9-2.8,9.8-5.6,14.7-8.4
		C648,398.2,648.4,398,648.4,397.4z"/>
	<path fill="#151D38" d="M733.7,401.8c0.5,0,1,0.3,1.5,0.6c5.9,3.4,11.9,6.8,17.8,10.2c1.9,1.1,2,1.6,1,3.5
		c-0.6,1.1-1.1,2.1-1.8,3.1c-0.8,1.3-1.4,1.5-2.8,0.8c-1.8-0.9-3.5-2-5.2-3c-4.3-2.5-8.6-4.9-12.8-7.4c-2.1-1.2-2.2-1.6-1-3.8
		c0.6-1,1.2-2.1,1.8-3.1C732.5,402.2,733,401.8,733.7,401.8z M734.7,405.8c-0.7,0-0.8,0.4-1,0.7c-0.2,0.3-0.1,0.6,0.2,0.8
		c0.5,0.3,0.9,0.6,1.4,0.9c3.9,2.2,7.7,4.4,11.6,6.7c0.8,0.5,1.7,1,2.5,1.4c0.6,0.3,0.9-0.1,1.1-0.5c0.2-0.4,0.2-0.8-0.2-1
		c-0.2-0.1-0.4-0.3-0.6-0.4c-4.7-2.7-9.4-5.4-14.1-8.1C735.2,406.1,734.9,405.9,734.7,405.8z"/>
	<path fill="#151D38" d="M657.7,407.5c0,0.7-0.2,1.1-0.6,1.4c-0.4,0.3-0.8,0.5-1.2,0.8c-5.7,3.3-11.4,6.5-17,9.8
		c-2.5,1.4-2.8,1.3-4.3-1.2c-0.5-0.9-1-1.8-1.5-2.7c-0.6-1-0.3-1.8,0.6-2.5c0.4-0.3,0.8-0.5,1.2-0.7c5.6-3.2,11.2-6.4,16.8-9.7
		c2.4-1.4,2.7-1.3,4.1,1.2c0.5,0.8,1,1.6,1.4,2.5C657.5,406.7,657.6,407.2,657.7,407.5z M653.8,406.8c0.1-0.7-0.8-1.2-1.5-0.8
		c-5,2.8-10,5.7-14.9,8.6c-0.5,0.3-0.9,0.6-0.4,1.3c0.4,0.6,0.9,0.5,1.4,0.2c4.9-2.8,9.8-5.6,14.7-8.5
		C653.4,407.5,653.7,407.3,653.8,406.8z"/>
	<path fill="#151D38" d="M760,405.4c0,0.2-0.1,0.5-0.2,0.8c-0.7,1.3-1.5,2.6-2.3,3.9c-0.6,1-1.4,1.2-2.4,0.7
		c-0.4-0.2-0.8-0.5-1.3-0.7c-5.6-3.2-11.2-6.4-16.8-9.6c-2.4-1.4-2.5-1.7-1.1-4.1c0.5-1,1.1-1.9,1.7-2.9c0.6-1,1.4-1.2,2.4-0.7
		c0.2,0.1,0.4,0.2,0.6,0.3c5.9,3.4,11.9,6.8,17.8,10.2C759.2,403.8,760,404.2,760,405.4z M756,406.2c0.1-0.6-0.4-0.8-0.8-1.1
		c-4.8-2.8-9.7-5.6-14.5-8.4c-0.6-0.3-1.1-0.6-1.6,0.2c-0.5,0.9,0.2,1.1,0.7,1.4c3.5,2,7.1,4.1,10.6,6.1c1.4,0.8,2.8,1.6,4.2,2.4
		C755.5,407.4,755.7,406.8,756,406.2z"/>
	<path fill="#151D38" d="M729.6,377.4c3.3,0,5.9,2.5,5.9,5.9c0,3.4-2.7,6-6.1,6c-3.3-0.1-5.7-2.6-5.7-6
		C723.8,379.9,726.2,377.4,729.6,377.4z"/>
	<path fill="#151D38" d="M656.3,377.4c3.4,0,5.9,2.6,5.8,6c-0.1,3.4-2.7,5.9-6,5.8c-3.4-0.1-5.9-2.6-5.8-6
		C650.4,379.9,653,377.4,656.3,377.4z"/>
	<path fill="#151D38" d="M781.8,418.4c-1.2,0-2.4,0-3.5-0.5c-1.4-0.5-2-1.3-1.5-2.2c0.5-1.1,1.3-1.2,2.4-0.8
		c2.1,0.8,4.2,0.6,6.3-0.5c2.8-1.5,4.4-4.7,3.9-7.6c-0.6-3.5-3-6-6.3-6.7c-0.2,0-0.3,0-0.5-0.1c-1.8-0.3-2.4-0.7-2.2-1.8
		c0.1-1.1,0.9-1.4,2.7-1.3c5.4,0.4,9.7,5.4,9.6,11C792.4,413.8,787.7,418.3,781.8,418.4z"/>
	<path fill="#151D38" d="M692.8,375.4c0.8,0,1.3,0.3,1.5,1c0.3,0.8-0.1,1.4-0.7,1.8c-1.2,0.7-2.4,1.3-3.6,1.9
		c-0.6,0.3-0.6,0.7-0.1,1c1,0.7,2,1.3,3,2c1.1,0.8,1.3,1.6,0.8,2.4c-0.6,0.8-1.4,1-2.5,0.2c-1.9-1.3-3.9-2.6-5.7-3.9
		c-1.3-1-1.4-2.1-0.1-2.9c2.2-1.3,4.5-2.4,6.8-3.5C692.4,375.5,692.7,375.5,692.8,375.4z"/>
	<path fill="#151D38" d="M734.6,369.6c5,0.3,9.6,5.6,9.1,10.6c-0.1,1-0.4,1.8-1.5,1.8c-1.1,0-1.5-0.7-1.6-1.7
		c-0.6-4.8-2.1-6.6-6.5-7.6c-1.4-0.3-1.8-0.8-1.7-1.9C732.5,369.8,733.2,369.5,734.6,369.6z"/>
	<path fill="#151D38" d="M642.2,378.9c0.1-4.1,3.5-8.2,7.9-9.1c0.5-0.1,1.1-0.2,1.7-0.2c0.9,0,1.6,0.3,1.7,1.3
		c0.1,0.9-0.3,1.5-1.3,1.7c-0.5,0.1-1,0.1-1.4,0.2c-3.1,0.9-5,3-5.5,6.2c-0.1,0.4,0,0.8-0.1,1.2c-0.1,1-0.6,1.7-1.6,1.6
		c-0.9,0-1.4-0.7-1.4-1.6C642.2,380,642.2,379.7,642.2,378.9z"/>
	<path fill="#151D38" d="M875.9,494.4c-11.1,0-19.4-9.6-17.8-20.5c0.8-5.2,1.6-10.4,2.5-15.6c0.3-2.1,0.7-2.4,2.8-2.1
		c6,0.8,12,1.8,18,2.6c3.8,0.6,7.6,1.1,11.4,1.7c0.5,0.1,1,0.1,1.4,0.2c1.8,0.4,2.1,0.8,1.9,2.7c-0.5,3.2-1,6.5-1.5,9.7
		c-0.4,2.3-0.7,4.6-1.1,6.8C891.7,488.4,884.5,494.4,875.9,494.4z"/>
	<path fill="#151D38" d="M861,475.7c0,3.7,0.8,6.4,2.3,8.7c1.4,2.2,1.5,1.7,2.5-0.1c4.6-7.5,13.1-11.4,21.7-9.9
		c1.1,0.2,2.3,1.1,3.1,0.4c0.9-0.7,0.5-2.3,0.8-3.4c0.3-1.2-0.3-1.3-1.3-1.4c-5.4-0.8-10.9-1.6-16.3-2.4c-3.2-0.5-6.5-0.9-9.7-1.4
		c-0.9-0.1-1.8-0.3-2,1C861.9,470.4,861.1,473.4,861,475.7z"/>
	<path fill="#E5384A" d="M875.8,491.2c6.8,0,12.6-4.5,14.3-10.9c0.4-1.7,0.4-1.8-1.3-2.3c-7.9-2.4-17.3,1.8-20.8,9.2
		c-0.6,1.2-0.2,1.7,0.8,2.2C870.9,490.6,873.2,491.3,875.8,491.2z"/>
	<path fill="#FFFFFF" d="M864.9,459.5c-1.3-0.1-1.3,0-1.7,1.9c-0.2,1.1,0.1,1.6,1.2,1.8c2.1,0.3,4.1,0.5,6.2,0.8
		c6.7,1,13.4,2,20.2,2.9c0.5,0.1,1.1,0.4,1.3-0.1c0.5-0.8,0.7-1.8,0.5-2.7c-0.1-0.8-1-0.6-1.6-0.7c-5.1-0.8-10.3-1.6-15.4-2.3
		C872,460.5,868.5,460,864.9,459.5z"/>
	<path fill="#151D38" d="M827.6,474c-5.9,0-10.6-4.5-10.6-10.4c0-5.9,4.8-10.8,10.6-10.7c5.9,0.1,10.4,4.7,10.4,10.6
		C838,469.5,833.5,474,827.6,474z"/>
	<path fill="#EDCFE4" d="M820.2,463.5c0,4.1,3.4,7.5,7.4,7.5c3.9,0,7.2-3.4,7.3-7.4c0-4-3.2-7.3-7.2-7.4
		C823.5,456.1,820.2,459.3,820.2,463.5z"/>
	<path fill="#151D38" d="M949.1,476.4c-0.1,5.8-4.8,10.5-10.6,10.5c-5.9,0-10.6-4.9-10.5-10.8c0.1-5.8,4.9-10.4,10.7-10.3
		C944.6,465.9,949.2,470.6,949.1,476.4z"/>
	<path fill="#EDCFE4" d="M938.6,468.9c-4,0-7.4,3.2-7.4,7.2c-0.1,4.1,3.3,7.5,7.4,7.6c3.9,0,7.4-3.3,7.5-7.3
		C946.1,472.4,942.7,469,938.6,468.9z"/>
	<path fill="#151D38" d="M973.9,477.1c0,4.9-3.5,8.8-8,9.3c-0.6,0.1-1.1,0-1.7,0c-0.9-0.1-1.6-0.6-1.6-1.5c0-1,0.7-1.6,1.7-1.6
		c0.4,0,0.8,0,1.2,0c2.7-0.3,4.9-2.3,5.2-4.9c0.3-2.9-1.1-5.3-3.7-6.3c-0.4-0.2-0.9-0.3-1.4-0.4c-1.1-0.3-1.4-1-1.2-2
		c0.3-1,1-1.1,1.9-1c2.7,0.4,4.8,1.7,6.2,4C973.4,474.1,973.8,475.7,973.9,477.1z"/>
	<path fill="#151D38" d="M881.5,440.4c0.9,0,1.5,0.2,1.7,1.1c0.3,1-0.2,1.7-1.2,2c-2,0.6-4,1.1-6,1.7c-2.4,0.7-3,0.3-0.6,2.7
		c1.2,1.2,2.3,2.4,3.5,3.6c0.4,0.4,0.7,0.8,1,1.3c0.4,0.6,0.3,1.2-0.2,1.7c-0.6,0.6-1.3,0.7-1.9,0.2c-0.6-0.5-1.2-1.1-1.7-1.7
		c-2-2.1-4-4.1-6-6.2c-1.8-1.9-1.5-2.9,1.1-3.7c3.1-0.9,6.1-1.7,9.2-2.6C880.8,440.6,881.2,440.5,881.5,440.4z"/>
	<path fill="#151D38" d="M801,449.7c0.2,0,0.7,0,1.1,0.2c0.7,0.2,1,0.7,1,1.5c0,0.7-0.4,1.2-1.1,1.4c-0.5,0.1-1,0-1.4,0.1
		c-3,0.3-5.3,2.4-5.6,5.3c-0.3,2.7,1.5,5.2,4.4,6.1c0.4,0.1,0.8,0.1,1.2,0.3c0.7,0.3,1.1,0.9,0.9,1.7c-0.2,0.8-0.8,1.2-1.6,1.2
		c-0.9,0-1.7-0.3-2.5-0.6c-4-1.6-6.1-5.8-5.2-10.2C792.9,452.7,796.5,449.7,801,449.7z"/>
	<path fill="#151D38" d="M849.1,448.7c0,0.2,0,0.7-0.1,1.1c-0.2,0.7-0.7,1.1-1.4,1.1c-0.8,0-1.4-0.4-1.5-1.2c-0.1-0.5,0-1-0.1-1.4
		c-0.2-1.4-1.2-2.4-2.4-2.6c-1.2-0.2-2.4,0.5-3.1,1.7c-0.2,0.3-0.2,0.6-0.4,0.9c-0.4,0.9-1,1.2-1.9,0.9c-0.9-0.3-1.2-1-1-1.9
		c0.4-1.9,1.5-3.3,3.2-4.2C844.4,441.2,849,444,849.1,448.7z"/>
	<path fill="#151D38" d="M925.4,451.9c3.5,0,6.4,3.1,6,6.6c-0.1,1-0.4,1.7-1.5,1.9c-0.9,0.1-1.6-0.6-1.6-1.9c0-1.4-0.5-2.5-1.8-3.1
		c-1.2-0.6-2.8-0.2-3.6,1c-0.3,0.4-0.4,0.9-0.6,1.3c-0.4,1-1.2,1.3-2.2,0.9c-0.8-0.4-1-1.1-0.8-2C920,453.9,922.6,451.9,925.4,451.9
		z"/>
	<path fill="#151D38" d="M839.3,435.1c0.2,0,0.7,0,1.1,0.2c0.6,0.3,1,0.8,0.9,1.5c-0.1,0.6-0.4,1.1-1,1.2c-0.5,0.1-1.1,0.2-1.6,0.2
		c-2.9,0.4-4.7,2.1-5.5,4.9c-0.1,0.5-0.2,1.1-0.4,1.6c-0.3,0.7-0.9,0.9-1.6,0.8c-0.7-0.1-1.2-0.5-1.2-1.3c0-0.5,0-1,0-1.4
		C830.6,438.7,834.7,435.1,839.3,435.1z"/>
	<path fill="#151D38" d="M939.3,454.8c0,0.6,0,1.3-0.2,1.9c-0.3,0.8-0.9,1.1-1.7,1c-0.7-0.1-1.2-0.5-1.3-1.2c-0.1-0.5,0-1.1,0-1.7
		c-0.1-2.9-1.4-4.8-4.1-5.9c-0.4-0.2-0.9-0.3-1.4-0.5c-0.8-0.3-1-1-0.9-1.7c0.1-0.9,0.7-1.2,1.5-1.2c1.2,0,2.3,0.5,3.4,1.1
		C937.6,448.5,939.2,451.2,939.3,454.8z"/>
	<path fill="#151D38" d="M587.5,456.4c0,5.7-4.7,10.3-10.4,10.3c-5.6-0.1-10.2-4.7-10.2-10.3c0-5.7,4.7-10.3,10.4-10.3
		C583,446.2,587.5,450.7,587.5,456.4z"/>
	<path fill="#FFFFFF" d="M577.3,463.5c3.9,0,7.1-3.3,7-7.2c-0.1-3.8-3.3-6.9-7.1-7c-3.9,0-7.1,3.2-7.1,7.1
		C570.1,460.3,573.4,463.5,577.3,463.5z"/>
	<path fill="#151D38" d="M571.9,429.6c0,3.2-2.4,5.8-5.6,5.9c-3.3,0.1-6-2.6-6-5.8c0-3.2,2.6-5.7,5.8-5.7
		C569.4,423.9,571.8,426.3,571.9,429.6z"/>
	<path fill="#151D38" d="M612.5,443.4c0,4.1-3.2,7.8-7.2,8.4c-0.5,0.1-1.1,0.1-1.7,0c-0.7-0.1-1.2-0.5-1.2-1.2
		c-0.1-0.8,0.1-1.4,1-1.7c0.6-0.1,1.3-0.2,1.9-0.4c2.6-0.7,4.2-2.9,4.1-5.5c-0.1-2.5-1.9-4.7-4.4-5.2c-0.5-0.1-0.9-0.1-1.4-0.2
		c-0.8-0.2-1.2-0.7-1.2-1.6c0.1-1,0.6-1.4,1.6-1.4c2.5-0.1,4.5,0.9,6.2,2.6C611.7,438.9,612.5,440.9,612.5,443.4z"/>
	<path fill="#151D38" d="M579.6,426.4c0,0.2-0.1,0.7-0.2,1.2c-0.3,0.7-0.9,0.9-1.6,0.8c-0.6,0-1.1-0.4-1.2-1
		c-0.1-0.4-0.1-0.8-0.1-1.2c-0.4-3.6-2.3-5.8-5.8-6.7c-0.5-0.1-0.9-0.2-1.4-0.3c-0.7-0.3-1-0.8-0.9-1.5c0.1-0.7,0.5-1.2,1.2-1.3
		c0.5-0.1,1.1-0.1,1.7,0C575.9,417.2,579.5,421.5,579.6,426.4z"/>
	<path fill="#151D38" d="M468.9,446c5.8,0,10.1,4.3,10.2,10.2c0,5.7-4.4,10.3-10.1,10.3c-5.7,0.1-10.4-4.7-10.3-10.4
		C458.7,450.4,463.2,446,468.9,446z"/>
	<path fill="#FFFFFF" d="M476.1,456.3c0.1-3.9-3.2-7.2-7.1-7.2c-3.8,0-7.1,3.1-7.2,6.9c-0.1,3.8,3.1,7.3,7,7.4
		C472.6,463.5,476,460.2,476.1,456.3z"/>
	<path fill="#151D38" d="M486.2,429.5c0,3.2-2.5,5.8-5.7,5.9c-3.1,0.1-5.8-2.5-5.9-5.7c-0.1-3.4,2.3-5.9,5.8-5.9
		C483.7,423.8,486.2,426.2,486.2,429.5z"/>
	<path fill="#151D38" d="M433.9,443c0-4.3,3.1-7.9,7.2-8.5c0.5-0.1,1.1-0.1,1.7,0c0.7,0.1,1.2,0.5,1.2,1.2c0.1,0.8-0.2,1.4-1,1.7
		c-0.4,0.1-1,0.1-1.4,0.2c-2.8,0.6-4.6,2.9-4.5,5.6c0.1,2.7,1.9,4.7,4.6,5.3c0.2,0,0.5,0,0.7,0.1c1.3,0.3,1.8,0.9,1.6,1.9
		c-0.2,0.9-1,1.3-2.2,1.2C437.2,451.3,433.9,447.6,433.9,443z"/>
	<path fill="#151D38" d="M466.6,425.8c0.1-4.6,3.8-8.8,8.3-9.5c0.5-0.1,1-0.1,1.4-0.1c0.8,0,1.4,0.5,1.5,1.3
		c0.1,0.8-0.3,1.4-1.1,1.7c-0.7,0.2-1.4,0.2-2.1,0.5c-2.8,1-4.5,3-4.8,6c0,0.3,0,0.6,0,1c-0.1,1-0.5,1.7-1.6,1.7
		c-0.9,0-1.5-0.7-1.6-2C466.6,426.1,466.6,426,466.6,425.8z"/>
	<path fill="#151D38" d="M365,431.6c0-0.1,0-0.2,0-0.2c0.1-1.7,0.5-2.5,1.6-2.5c1.1,0,1.5,0.7,1.5,2.5c0.1,4,2,6.5,5.9,7.7
		c1.9,0.6,2.5,1.2,2.1,2.3c-0.4,1-1.4,1.2-3.1,0.8C368.3,440.8,365,436.5,365,431.6z"/>
	<path fill="#151D38" d="M336.7,343.6c2.4,0.4,4.8,0.8,7.1,1.2c2.2,0.4,2.3,0.4,3.3-1.7c0.8-1.6,1.6-3.3,2.5-4.9
		c0.3-0.5,0.5-1,0.8-1.5c0.4-0.7,1-1,1.8-0.9c0.7,0.1,1.1,0.7,1.2,1.3c0.4,2.4,0.8,4.7,1.2,7.1c0.4,2.3,0.4,2.3,2.6,2.6
		c2.1,0.3,4.1,0.6,6.2,1c0.2,0,0.3,0,0.5,0.1c0.9,0.2,1.8,0.4,1.9,1.5c0.1,0.9-0.5,1.4-1.3,1.8c-2.1,1-4.1,2.1-6.2,3.2
		c-1.8,0.9-1.8,0.9-1.6,2.9c0.3,2,0.7,3.9,0.9,5.9c0.1,1.1,0.8,2.5-0.7,3.2c-1.3,0.6-2-0.6-2.8-1.4c-1.5-1.5-3.1-3-4.6-4.6
		c-0.8-0.9-1.5-0.9-2.5-0.4c-1.9,1-3.8,2-5.7,3c-0.5,0.3-1,0.5-1.5,0.7c-1.4,0.4-2.4-0.5-2-2c0.1-0.5,0.4-1,0.7-1.5
		c0.9-1.9,1.8-3.7,2.9-5.5c0.7-1.2,0.6-2-0.4-2.9c-1.6-1.4-3-2.9-4.5-4.3c-0.4-0.4-0.8-0.8-1.1-1.2c-0.4-0.6-0.5-1.2-0.1-1.8
		C335.5,343.7,336.1,343.5,336.7,343.6z"/>
	<path fill="#FFFFFF" d="M342.9,347.7c-0.3,0.1-0.8-0.3-1,0.2c-0.1,0.4,0.2,0.6,0.4,0.8c0.8,0.8,1.6,1.6,2.4,2.4
		c0.9,0.8,1,1.7,0.5,2.8c-0.7,1.3-1.5,2.6-1.9,4.1c1.7,0,2.9-1.2,4.3-1.8c1.2-0.5,2-0.3,2.8,0.6c0.8,0.9,1.7,1.7,2.5,2.5
		c0.2,0.2,0.3,0.4,0.6,0.2c0.3-0.1,0.2-0.4,0.2-0.6c-0.1-0.9-0.3-1.7-0.4-2.6c-0.4-2.8-0.4-2.8,2-4.1c0.7-0.4,1.4-0.7,2.1-1.1
		c0.3-0.2,0.8-0.3,0.7-0.8c0-0.2-0.5-0.2-0.8-0.3c-0.7-0.1-1.4-0.3-2.1-0.4c-3.1-0.5-3.1-0.5-3.5-3.4c-0.1-0.9-0.3-1.7-0.5-2.6
		c0-0.1-0.1-0.3-0.2-0.4c-0.2-0.1-0.5,0-0.6,0.3c-0.6,1.1-1.2,2.1-1.7,3.2c-0.6,1.3-1.5,1.8-2.9,1.5C345,348,344,347.9,342.9,347.7z
		"/>
	<path fill="#151D38" d="M1041.8,420.8c-0.2,1.3-0.7,3,0.1,4c0.6,0.9,2.2,1.1,3.4,1.5c1,0.4,1.9,0.7,2.9,1.1
		c0.8,0.3,1.4,0.8,1.3,1.7c-0.1,0.8-0.7,1.2-1.4,1.4c-1.8,0.5-3.5,1.1-5.3,1.5c-1.2,0.3-1.6,0.9-1.6,2c0,1.8-0.1,3.5-0.2,5.3
		c0,0.8-0.1,1.6-1,2c-1,0.4-1.7-0.2-2.2-1c-1-1.5-2-2.9-2.9-4.4c-0.6-0.9-1.2-1.3-2.3-0.9c-1.6,0.6-3.4,1-5,1.5
		c-0.8,0.2-1.6,0.4-2.2-0.4c-0.6-0.8-0.3-1.7,0.3-2.4c1.1-1.5,2.2-2.9,3.4-4.3c0.6-0.7,0.6-1.3,0-2.1c-1-1.4-2-2.9-2.9-4.4
		c-0.4-0.5-0.7-1.1-0.6-1.8c0.1-1,1-1.6,2.2-1.2c1.6,0.5,3.1,1.2,4.7,1.7c2.1,0.7,2.1,0.7,3.5-1.1c0.9-1.2,1.9-2.4,2.8-3.6
		c0.5-0.6,1.1-1.3,2-0.9c1,0.4,1.2,1.2,1.1,2.2C1041.8,419,1041.8,419.9,1041.8,420.8z"/>
	<path fill="#FFFFFF" d="M1031.2,431.5c0.9,0.5,1.7,0,2.5-0.2c1.1-0.3,2-0.1,2.7,1c0.2,0.4,0.5,0.8,0.8,1.2c0.2,0.3,0.3,0.6,0.7,0.5
		c0.4-0.1,0.3-0.5,0.3-0.8c-0.4-2.4,0.7-3.8,3.1-4c0.1,0,0.2,0,0.2-0.1c0.2-0.1,0.5-0.2,0.5-0.4c0.1-0.4-0.4-0.4-0.6-0.5
		c-2.4-0.5-3.6-1.9-2.9-4.5c0-0.1,0-0.2,0-0.2c0-0.1-0.1-0.3-0.2-0.4c-0.2-0.2-0.5,0-0.6,0.1c-0.2,0.2-0.4,0.5-0.6,0.7
		c-1.6,1.9-1.6,1.9-4,1.2c-0.2-0.1-0.5-0.2-0.7-0.2c-0.3-0.1-0.6-0.3-0.8,0.1c-0.1,0.1,0.1,0.4,0.2,0.6c1.6,2.9,1.6,2.9-0.4,5.5
		C1031.5,431.3,1031.4,431.4,1031.2,431.5c0.2,0.3-0.2,0.1,0.1,0.2c0,0,0.1,0,0.1,0C1031.4,431.7,1031.3,431.6,1031.2,431.5z"/>
	<path fill="#151D38" d="M1067.7,491.2c0,3.3-1,5.9-3.1,8.1c-0.4,0.4-1,0.9-1.5,1.1c-0.7,0.4-1.4,0.2-1.9-0.5
		c-0.5-0.7-0.4-1.4,0.2-2c0.3-0.3,0.6-0.5,0.9-0.8c2.7-2.8,3.2-5.9,1.4-9.4c-0.1-0.3-0.3-0.5-0.5-0.8c-0.4-0.8-0.3-1.6,0.5-2.1
		c0.8-0.5,1.5-0.3,2.1,0.4c0.9,1.1,1.5,2.5,1.8,3.9C1067.6,489.9,1067.6,490.7,1067.7,491.2z"/>
</g>
</svg>
